<svg width="0" height="0" class="hidden">
  <symbol fill="none" xmlns="http://www.w3.org/2000/svg" viewBox="0 0 29 22" id="jeep">
    <path d="M26 18H28V13.415C28 12.4055 27.3379 11.5156 26.3711 11.2256L22.2857 10H4V18H6.43263" stroke="#484848" stroke-miterlimit="10" stroke-linecap="round" stroke-linejoin="round"></path>
    <path d="M20 18L13 18" stroke="#484848" stroke-miterlimit="10" stroke-linecap="round" stroke-linejoin="round"></path>
    <path d="M18.9132 4H4V10H23L21.1663 5.36755C20.8431 4.5509 19.9355 4 18.9132 4Z" stroke="#484848" stroke-miterlimit="10" stroke-linecap="round" stroke-linejoin="round"></path>
    <path d="M1.96774 16H4V9H1.96774C1.43326 9 1 9.52232 1 10.1667V14.8333C1 15.4777 1.43326 16 1.96774 16Z" stroke="#484848" stroke-miterlimit="10" stroke-linecap="round" stroke-linejoin="round"></path>
    <path d="M17 18V4" stroke="#484848" stroke-miterlimit="10" stroke-linecap="round" stroke-linejoin="round"></path>
    <path d="M9 10V4" stroke="#484848" stroke-miterlimit="10" stroke-linecap="round" stroke-linejoin="round"></path>
    <path d="M17 4V1H8V4" stroke="#484848" stroke-miterlimit="10" stroke-linecap="round" stroke-linejoin="round"></path>
    <path d="M6 1H18" stroke="#484848" stroke-miterlimit="10" stroke-linecap="round" stroke-linejoin="round"></path>
    <path d="M13 18C13 19.6569 11.6569 21 10 21C8.34313 21 7 19.6569 7 18C7 16.3431 8.34313 15 10 15C11.6569 15 13 16.3431 13 18Z" stroke="#484848" stroke-miterlimit="10" stroke-linecap="round" stroke-linejoin="round"></path>
    <path d="M26 18C26 19.6569 24.6569 21 23 21C21.3431 21 20 19.6569 20 18C20 16.3431 21.3431 15 23 15C24.6569 15 26 16.3431 26 18Z" stroke="#484848" stroke-miterlimit="10" stroke-linecap="round" stroke-linejoin="round"></path>
  </symbol>
  <symbol fill="none" xmlns="http://www.w3.org/2000/svg" viewBox="0 0 27 25" id="mortar">
    <path d="M3.16406 13.5547H23.8359C25.0009 13.5547 25.9453 12.6103 25.9453 11.4453C25.9453 10.2804 25.0009 9.33594 23.8359 9.33594H3.16406C1.99911 9.33594 1.05469 10.2804 1.05469 11.4453C1.05469 12.6103 1.99911 13.5547 3.16406 13.5547ZM3.16406 13.5547V15.6641C3.16406 18.4194 4.92497 20.7634 7.38281 21.6321V21.9922C7.38281 23.1571 8.32723 24.1016 9.49219 24.1016H17.5078C18.6728 24.1016 19.6172 23.1571 19.6172 21.9922V21.6321C21.4153 20.9966 22.8404 19.5715 23.4759 17.7734M13.8451 9.33594L22.3659 1.55894M22.3659 1.55894C23.2263 0.773563 24.5605 0.834471 25.3459 1.69488C26.1313 2.55535 26.0703 3.88953 25.2099 4.6749L20.1031 9.33594M22.3659 1.55894L14.5759 8.66901M7.38281 5.11719H5.27344C2.95318 5.11719 1.05469 3.2187 1.05469 0.898438H3.16406C5.48432 0.898438 7.38281 2.79682 7.38281 5.11719ZM7.38281 5.11719H9.49219C11.8124 5.11719 13.7109 3.2187 13.7109 0.898438H11.6016C9.2813 0.898438 7.38281 2.79682 7.38281 5.11719Z" stroke="#484848" stroke-miterlimit="10" stroke-linecap="round" stroke-linejoin="round"></path>
  </symbol>
  <symbol fill="none" xmlns="http://www.w3.org/2000/svg" viewBox="0 0 17 29" id="skirt-man">
    <path d="M13.4293 21.8198C14.2495 21.6103 15.0506 21.3324 15.8244 20.989C16.0679 20.8809 16.1535 20.5786 16.0025 20.359L11.1533 13.3118" stroke="#484848" stroke-miterlimit="10" stroke-linecap="round" stroke-linejoin="round"></path>
    <path d="M5.84661 13.3114L0.997436 20.3587C0.846405 20.5782 0.932045 20.8805 1.17557 20.9887C1.66268 21.205 2.50353 21.5493 3.54882 21.8599" stroke="#484848" stroke-miterlimit="10" stroke-linecap="round" stroke-linejoin="round"></path>
    <path d="M7.59039 7.41672L1.48229 10.205C1.13577 10.3734 0.986215 10.787 1.14479 11.1381C1.30267 11.4873 1.70867 11.6489 2.06331 11.5035L6.27092 9.81201L5.84673 13.3118M11.1514 13.3118L10.7272 9.81201C12.1333 10.3669 13.5367 10.9285 14.9347 11.5035C15.2893 11.6489 15.6953 11.4873 15.8531 11.1381C16.0118 10.787 15.8622 10.3734 15.5157 10.205C14.694 9.79825 13.8629 9.41366 13.023 9.04599" stroke="#484848" stroke-miterlimit="10" stroke-linecap="round" stroke-linejoin="round"></path>
    <path d="M11.3665 8.29932L9.46655 7.44307" stroke="#484848" stroke-miterlimit="10" stroke-linecap="round" stroke-linejoin="round"></path>
    <path d="M8.49905 7.50415C7.51002 7.50415 6.70825 6.70238 6.70825 5.71335V4.16929H10.2899V5.71335C10.2899 6.70238 9.48814 7.50415 8.49905 7.50415Z" stroke="#484848" stroke-miterlimit="10" stroke-linecap="round" stroke-linejoin="round"></path>
    <path d="M9.40387 1.38271H7.59424C7.49377 1.38271 7.39645 1.41777 7.31907 1.48185C7.24168 1.54593 7.18909 1.635 7.17036 1.73371L6.70825 4.16919H10.2899L9.82774 1.73371C9.80903 1.635 9.75644 1.54592 9.67905 1.48184C9.60167 1.41776 9.50434 1.3827 9.40387 1.38271Z" stroke="#484848" stroke-miterlimit="10" stroke-linecap="round" stroke-linejoin="round"></path>
    <path d="M6.76001 23.7111L7.01867 27.6172H8.49913V23.827" stroke="#484848" stroke-miterlimit="10" stroke-linecap="round" stroke-linejoin="round"></path>
    <path d="M10.2381 23.7111L9.97948 27.6172H8.49902V23.827" stroke="#484848" stroke-miterlimit="10" stroke-linecap="round" stroke-linejoin="round"></path>
    <path d="M4.20411 23.1123C3.98677 23.0405 3.77151 22.9626 3.55859 22.8786C3.32862 22.7876 3.22631 22.5186 3.3351 22.2966L5.83439 17.1947" stroke="#484848" stroke-miterlimit="10" stroke-linecap="round" stroke-linejoin="round"></path>
    <path d="M11.1638 17.1947L13.6624 22.2951C13.7719 22.5187 13.6666 22.787 13.4352 22.8787C12.7961 23.1319 12.1269 23.3345 11.4538 23.4942C9.67858 23.9152 7.72631 23.9323 5.91626 23.5719" stroke="#484848" stroke-miterlimit="10" stroke-linecap="round" stroke-linejoin="round"></path>
  </symbol>
  <symbol fill="none" xmlns="http://www.w3.org/2000/svg" viewBox="0 0 27 27" id="tea">
    <path d="M14.5546 17.8149C13.4182 15.0757 9.78196 12.6037 7.54102 12.6037V12.551C10.0438 11.7564 12.8612 12.376 14.6263 13.3549" stroke="#484848" stroke-miterlimit="10" stroke-linecap="round" stroke-linejoin="round"></path>
    <path d="M18.2194 3.876C19.1676 7.41468 19.2919 9.30425 21.9901 12.3398H14.4487C17.152 9.29502 17.2565 7.46989 18.2194 3.876Z" stroke="#484848" stroke-miterlimit="10" stroke-linecap="round" stroke-linejoin="round"></path>
    <path d="M18.2195 4.03418V0.791025" stroke="#484848" stroke-miterlimit="10" stroke-linecap="round" stroke-linejoin="round"></path>
    <path d="M14.4488 12.34C15.1318 15.4833 14.5387 18.6242 13.7267 21.7646C13.5735 22.357 13.5859 22.9023 13.7659 23.4871L14.6026 26.2065" stroke="#484848" stroke-miterlimit="10" stroke-linecap="round" stroke-linejoin="round"></path>
    <path d="M21.9906 12.34C21.3076 15.4833 21.9007 18.6242 22.7127 21.7646C22.8659 22.357 22.8535 22.9023 22.6736 23.4871L21.8369 26.2065H14.6025" stroke="#484848" stroke-miterlimit="10" stroke-linecap="round" stroke-linejoin="round"></path>
    <path d="M21.9158 13.6706C24.3404 13.8324 26.2089 15.5138 26.2089 17.5341C26.2089 19.2333 24.8761 20.7345 22.9214 21.2368" stroke="#484848" stroke-miterlimit="10" stroke-linecap="round" stroke-linejoin="round"></path>
    <path d="M17.6655 3.90234H18.7734" stroke="#484848" stroke-miterlimit="10" stroke-linecap="round" stroke-linejoin="round"></path>
    <path d="M9.75578 23.6219C9.76923 24.5302 9.09012 25.3278 8.19748 25.4924C8.09307 25.903 7.71924 26.209 7.27732 26.209H4.27147C3.82967 26.209 3.45589 25.9031 3.35142 25.4926C2.46802 25.3312 1.79302 24.5531 1.79297 23.625L1.55566 21.1992L0.791016 19.8281H10.7578L9.99314 21.1977L9.75578 23.6219Z" stroke="#484848" stroke-miterlimit="10" stroke-linecap="round" stroke-linejoin="round"></path>
  </symbol>
  <symbol fill="none" xmlns="http://www.w3.org/2000/svg" viewBox="0 0 29 26" id="tent">
    <path d="M1 25.2562H28" stroke-miterlimit="10" stroke-linecap="round" stroke-linejoin="round"></path>
    <path d="M11.696 12.9916H26.2859V10.0584H3.26279V12.9916H6.86899" stroke-miterlimit="10" stroke-linecap="round" stroke-linejoin="round"></path>
    <path d="M14.7462 1.00027C14.7462 1.00027 11.4951 7.96638 3.26279 10.0587H14.7462M14.7462 1.00027V10.0587M14.7462 1.00027C14.7462 1.00027 18.0536 7.96638 26.2859 10.0587H14.7462" stroke-miterlimit="10" stroke-linecap="round" stroke-linejoin="round"></path>
    <path d="M6.86912 12.992H4.36053L2.71408 25.2562H8.93747C8.93747 25.2562 14.7463 20.4697 14.7463 12.992H11.6961" stroke-miterlimit="10" stroke-linecap="round" stroke-linejoin="round"></path>
    <path d="M24.6396 12.992L26.286 25.2562H20.6115C20.6115 25.2562 14.7463 20.4697 14.7463 12.992H24.6396Z" stroke-miterlimit="10" stroke-linecap="round" stroke-linejoin="round"></path>
    <path d="M14.7463 12.9919C14.7463 20.4695 8.9375 25.2562 8.9375 25.2562H2.71439C10.529 21.744 14.7463 12.9919 14.7463 12.9919ZM14.7463 12.9919C14.7463 20.4695 20.6115 25.2562 20.6115 25.2562H26.2858C18.4712 21.744 14.7463 12.9919 14.7463 12.9919Z" stroke-miterlimit="10" stroke-linecap="round" stroke-linejoin="round"></path>
    <path d="M20.6112 25.2568H8.93756C8.93756 25.2568 14.7465 20.47 14.7465 12.9924C14.7465 20.47 20.6112 25.2568 20.6112 25.2568Z" stroke-miterlimit="10" stroke-linecap="round" stroke-linejoin="round"></path>
  </symbol>
  <symbol fill="none" xmlns="http://www.w3.org/2000/svg" viewBox="0 0 27 27" id="tent2">
    <g clip-path="url(#clip0_2_8412)">
      <path d="M26.1562 24.0469H26.0483L22.3417 11.6915C22.3182 11.6134 22.2726 11.5438 22.2105 11.4911L13.773 4.31921C13.698 4.25561 13.6032 4.22018 13.5049 4.21902C13.4067 4.21787 13.3111 4.25107 13.2346 4.31288L4.37527 11.4848C4.3057 11.5407 4.25587 11.6174 4.23309 11.7037L0.941625 24.0469H0.84375C0.731862 24.0469 0.624556 24.0914 0.545439 24.1705C0.466322 24.2496 0.421875 24.3569 0.421875 24.4688V26.1563C0.421875 26.2682 0.466322 26.3755 0.545439 26.4546C0.624556 26.5337 0.731862 26.5782 0.84375 26.5782H26.1562C26.2681 26.5782 26.3754 26.5337 26.4546 26.4546C26.5337 26.3755 26.5781 26.2682 26.5781 26.1563V24.4688C26.5781 24.3569 26.5337 24.2496 26.4546 24.1705C26.3754 24.0914 26.2681 24.0469 26.1562 24.0469ZM23.9941 24.0469L23.0559 17.0092L25.1653 24.0469H23.9941ZM13.4932 5.18912L21.5409 12.029L23.1432 24.0469H18.0849L20.1791 20.9061C20.2332 20.8249 20.2576 20.7275 20.2479 20.6304C20.2383 20.5334 20.1954 20.4426 20.1264 20.3737L13.8004 14.0485C13.7487 14.0024 13.6869 13.9692 13.62 13.9514C13.5531 13.9337 13.4829 13.9319 13.4152 13.9463C13.3475 13.9607 13.2841 13.9908 13.2301 14.0342C13.1762 14.0776 13.1332 14.1331 13.1047 14.1961L9.41077 24.0469H3.84117L5.04309 12.0294L13.4932 5.18912ZM16.6881 24.0469H10.3119L13.5 15.5453L16.6881 24.0469ZM14.5787 16.0195L19.2852 20.7255L17.4028 23.5495L14.5787 16.0195ZM3.70027 16.975L2.99531 24.0469H1.81406L3.70027 16.975ZM25.7344 25.7344H1.26562V24.8907H25.7344V25.7344Z" fill="#484848"></path>
      <path d="M11.3906 11.3906H12.2344V12.2344C12.2344 12.3463 12.2788 12.4536 12.3579 12.5327C12.4371 12.6118 12.5444 12.6562 12.6562 12.6562H14.3438C14.4556 12.6562 14.5629 12.6118 14.6421 12.5327C14.7212 12.4536 14.7656 12.3463 14.7656 12.2344V11.3906H15.6094C15.7213 11.3906 15.8286 11.3462 15.9077 11.2671C15.9868 11.1879 16.0312 11.0806 16.0312 10.9688V9.28125C16.0312 9.16936 15.9868 9.06206 15.9077 8.98294C15.8286 8.90382 15.7213 8.85938 15.6094 8.85938H14.7656V8.01562C14.7656 7.90374 14.7212 7.79643 14.6421 7.71731C14.5629 7.6382 14.4556 7.59375 14.3438 7.59375H12.6562C12.5444 7.59375 12.4371 7.6382 12.3579 7.71731C12.2788 7.79643 12.2344 7.90374 12.2344 8.01562V8.85938H11.3906C11.2787 8.85938 11.1714 8.90382 11.0923 8.98294C11.0132 9.06206 10.9688 9.16936 10.9688 9.28125V10.9688C10.9688 11.0806 11.0132 11.1879 11.0923 11.2671C11.1714 11.3462 11.2787 11.3906 11.3906 11.3906ZM11.8125 9.70312H12.6562C12.7681 9.70312 12.8754 9.65868 12.9546 9.57956C13.0337 9.50044 13.0781 9.39314 13.0781 9.28125V8.4375H13.9219V9.28125C13.9219 9.39314 13.9663 9.50044 14.0454 9.57956C14.1246 9.65868 14.2319 9.70312 14.3438 9.70312H15.1875V10.5469H14.3438C14.2319 10.5469 14.1246 10.5913 14.0454 10.6704C13.9663 10.7496 13.9219 10.8569 13.9219 10.9688V11.8125H13.0781V10.9688C13.0781 10.8569 13.0337 10.7496 12.9546 10.6704C12.8754 10.5913 12.7681 10.5469 12.6562 10.5469H11.8125V9.70312Z" fill="#484848"></path>
      <path d="M20.6719 5.48432H23.2031C23.5053 5.48445 23.7976 5.37643 24.0271 5.17981C24.2566 4.98318 24.4081 4.71093 24.4544 4.41228C24.5006 4.11363 24.4384 3.8083 24.2791 3.5515C24.1198 3.29469 23.8738 3.10337 23.5857 3.01213C23.5033 2.63637 23.2949 2.30007 22.9951 2.05896C22.6953 1.81785 22.3222 1.6864 21.9375 1.6864C21.5528 1.6864 21.1796 1.81785 20.8798 2.05896C20.5801 2.30007 20.3717 2.63637 20.2892 3.01213C20.0011 3.10337 19.7552 3.29469 19.5959 3.5515C19.4365 3.8083 19.3744 4.11363 19.4206 4.41228C19.4668 4.71093 19.6184 4.98318 19.8479 5.17981C20.0774 5.37643 20.3696 5.48445 20.6719 5.48432ZM20.6719 3.79682C20.7837 3.79682 20.891 3.75237 20.9702 3.67326C21.0493 3.59414 21.0937 3.48683 21.0937 3.37495C21.0937 3.15117 21.1826 2.93656 21.3409 2.77832C21.4991 2.62009 21.7137 2.5312 21.9375 2.5312C22.1613 2.5312 22.3759 2.62009 22.5341 2.77832C22.6923 2.93656 22.7812 3.15117 22.7812 3.37495C22.7812 3.48683 22.8257 3.59414 22.9048 3.67326C22.9839 3.75237 23.0912 3.79682 23.2031 3.79682C23.315 3.79682 23.4223 3.84127 23.5014 3.92038C23.5805 3.9995 23.625 4.10681 23.625 4.21869C23.625 4.33058 23.5805 4.43789 23.5014 4.51701C23.4223 4.59612 23.315 4.64057 23.2031 4.64057H20.6719C20.56 4.64057 20.4527 4.59612 20.3735 4.51701C20.2944 4.43789 20.25 4.33058 20.25 4.21869C20.25 4.10681 20.2944 3.9995 20.3735 3.92038C20.4527 3.84127 20.56 3.79682 20.6719 3.79682Z" fill="#484848"></path>
      <path d="M3.79685 4.21869H6.3281C6.63031 4.21882 6.92258 4.1108 7.15208 3.91418C7.38157 3.71756 7.53313 3.44531 7.57936 3.14666C7.62558 2.84801 7.56342 2.54267 7.4041 2.28587C7.24479 2.02907 6.99885 1.83775 6.71074 1.74651C6.62827 1.37075 6.41988 1.03445 6.12011 0.793335C5.82034 0.552224 5.44718 0.420776 5.06248 0.420776C4.67777 0.420776 4.30462 0.552224 4.00485 0.793335C3.70507 1.03445 3.49669 1.37075 3.41421 1.74651C3.12611 1.83775 2.88016 2.02907 2.72085 2.28587C2.56154 2.54267 2.49937 2.84801 2.5456 3.14666C2.59182 3.44531 2.74338 3.71756 2.97288 3.91418C3.20237 4.1108 3.49465 4.21882 3.79685 4.21869ZM3.79685 2.53119C3.90874 2.53119 4.01605 2.48675 4.09516 2.40763C4.17428 2.32851 4.21873 2.22121 4.21873 2.10932C4.21873 1.88554 4.30762 1.67093 4.46586 1.5127C4.62409 1.35446 4.8387 1.26557 5.06248 1.26557C5.28625 1.26557 5.50086 1.35446 5.6591 1.5127C5.81733 1.67093 5.90623 1.88554 5.90623 2.10932C5.90623 2.22121 5.95067 2.32851 6.02979 2.40763C6.10891 2.48675 6.21621 2.53119 6.3281 2.53119C6.43999 2.53119 6.5473 2.57564 6.62641 2.65476C6.70553 2.73388 6.74998 2.84118 6.74998 2.95307C6.74998 3.06496 6.70553 3.17226 6.62641 3.25138C6.5473 3.3305 6.43999 3.37494 6.3281 3.37494H3.79685C3.68496 3.37494 3.57766 3.3305 3.49854 3.25138C3.41942 3.17226 3.37498 3.06496 3.37498 2.95307C3.37498 2.84118 3.41942 2.73388 3.49854 2.65476C3.57766 2.57564 3.68496 2.53119 3.79685 2.53119Z" fill="#484848"></path>
    </g>
    <defs>
      <clipPath id="clip0_2_8412">
        <rect width="27" height="27" fill="white"></rect>
      </clipPath>
    </defs>
  </symbol>
  <symbol fill="none" xmlns="http://www.w3.org/2000/svg" viewBox="0 0 27 25" id="beach-buggy">
    <path d="M5.58983 24.3652H2.42578C1.55208 24.3652 0.791016 23.657 0.791016 22.7832V16.4551C0.791016 15.5813 1.55208 14.8731 2.42578 14.8731H5.58983C6.46353 14.8731 7.17186 15.5813 7.17186 16.4551V22.7832C7.17186 23.657 6.46353 24.3652 5.58983 24.3652Z" stroke="#484848" stroke-miterlimit="10" stroke-linecap="round" stroke-linejoin="round"></path>
    <path d="M0.791016 18.0371H2.42578" stroke="#484848" stroke-miterlimit="10" stroke-linecap="round" stroke-linejoin="round"></path>
    <path d="M5.58984 18.0371H7.17187" stroke="#484848" stroke-miterlimit="10" stroke-linecap="round" stroke-linejoin="round"></path>
    <path d="M0.791016 21.2012H2.42578" stroke="#484848" stroke-miterlimit="10" stroke-linecap="round" stroke-linejoin="round"></path>
    <path d="M5.58984 21.2012H7.17187" stroke="#484848" stroke-miterlimit="10" stroke-linecap="round" stroke-linejoin="round"></path>
    <path d="M24.6269 24.3652H21.4102C20.5365 24.3652 19.8281 23.657 19.8281 22.7832V16.4551C19.8281 15.5813 20.5365 14.8731 21.4102 14.8731H24.6269C25.5006 14.8731 26.209 15.5813 26.209 16.4551V22.7832C26.209 23.657 25.5006 24.3652 24.6269 24.3652Z" stroke="#484848" stroke-miterlimit="10" stroke-linecap="round" stroke-linejoin="round"></path>
    <path d="M19.8281 18.0371H21.4102" stroke="#484848" stroke-miterlimit="10" stroke-linecap="round" stroke-linejoin="round"></path>
    <path d="M24.627 18.0371H26.209" stroke="#484848" stroke-miterlimit="10" stroke-linecap="round" stroke-linejoin="round"></path>
    <path d="M19.8281 21.2012H21.4102" stroke="#484848" stroke-miterlimit="10" stroke-linecap="round" stroke-linejoin="round"></path>
    <path d="M24.627 21.2012H26.209" stroke="#484848" stroke-miterlimit="10" stroke-linecap="round" stroke-linejoin="round"></path>
    <path d="M16.664 19.6191H10.3359V16.4551H16.664V19.6191Z" stroke="#484848" stroke-miterlimit="10" stroke-linecap="round" stroke-linejoin="round"></path>
    <path d="M7.17188 19.6191L10.3359 18.0371" stroke="#484848" stroke-miterlimit="10" stroke-linecap="round" stroke-linejoin="round"></path>
    <path d="M16.6641 18.0371L19.8281 19.6191" stroke="#484848" stroke-miterlimit="10" stroke-linecap="round" stroke-linejoin="round"></path>
    <path d="M10.3359 16.4551C10.3359 13.8339 8.21104 11.709 5.58983 11.709C3.84238 11.709 2.42578 10.2924 2.42578 8.54495H8.75389V5.38089H18.246V8.54495H24.5742C24.5742 10.2924 23.1576 11.709 21.4101 11.709C18.7889 11.709 16.664 13.8339 16.664 16.4551" stroke="#484848" stroke-miterlimit="10" stroke-linecap="round" stroke-linejoin="round"></path>
    <path d="M5.58983 3.79883H0.791016V0.634775H5.58983V3.79883ZM26.2089 3.79883H21.4101V0.634775H26.2089V3.79883Z" stroke="#484848" stroke-miterlimit="10" stroke-linecap="round" stroke-linejoin="round"></path>
    <path d="M5.58984 2.21681H7.17187C8.04557 2.21681 8.7539 2.92513 8.7539 3.79883V5.38086" stroke="#484848" stroke-miterlimit="10" stroke-linecap="round" stroke-linejoin="round"></path>
    <path d="M21.4101 2.21681H19.8281C18.9544 2.21681 18.2461 2.92513 18.2461 3.79883V5.38086" stroke="#484848" stroke-miterlimit="10" stroke-linecap="round" stroke-linejoin="round"></path>
    <path d="M11.918 13.291V11.709" stroke="#484848" stroke-miterlimit="10" stroke-linecap="round" stroke-linejoin="round"></path>
    <path d="M15.082 11.709V13.291" stroke="#484848" stroke-miterlimit="10" stroke-linecap="round" stroke-linejoin="round"></path>
    <path d="M15.082 5.38087V6.9629C15.082 7.83665 14.3737 8.54492 13.5 8.54492C12.6263 8.54492 11.918 7.83665 11.918 6.9629V5.38087" stroke="#484848" stroke-miterlimit="10" stroke-linecap="round" stroke-linejoin="round"></path>
  </symbol>
  <symbol fill="none" xmlns="http://www.w3.org/2000/svg" viewBox="0 0 29 26" id="camel">
    <path d="M9.45852 14.3879V18.5892L7.77802 20.2697V25.3112H5.25727L4.41702 18.5892L6.09752 16.9087L5.17504 13.2188C4.73212 11.4472 5.57914 9.60561 7.21248 8.78895C7.58705 8.60168 7.92897 8.35523 8.22509 8.0591L10.1021 6.18205C10.4725 5.81169 10.9204 5.52813 11.4136 5.35181C11.9068 5.17549 12.433 5.11081 12.9542 5.16242C13.4754 5.21403 13.9787 5.38065 14.4277 5.65028C14.8768 5.9199 15.2604 6.2858 15.5509 6.7216L17.211 9.21176C17.411 9.51165 17.6819 9.75754 17.9996 9.92761C18.3174 10.0977 18.6723 10.1867 19.0327 10.1867C20.2418 10.1867 21.222 9.20649 21.222 7.99738V3.46468C21.222 2.53654 21.9744 1.78418 22.9025 1.78418H28C28 3.6404 26.4392 5.14518 24.583 5.14518V10.475C24.583 11.9819 24.2862 13.4741 23.7095 14.8663C23.1328 16.2586 22.2876 17.5236 21.222 18.5892L20.3818 25.3112H17.861V14.3879" stroke="#484848" stroke-miterlimit="10" stroke-linecap="round" stroke-linejoin="round"></path>
    <path d="M17.861 16.9087C15.709 17.9847 13.2177 18.1618 10.9351 17.4009L9.4585 16.9087" stroke="#484848" stroke-miterlimit="10" stroke-linecap="round" stroke-linejoin="round"></path>
    <path d="M19.5415 1.00005L21.558 2.45642" stroke="#484848" stroke-miterlimit="10" stroke-linecap="round" stroke-linejoin="round"></path>
    <path d="M1 16.9087V11.0269C1 9.63477 2.18458 8.5062 3.57676 8.5062C4.57425 8.5062 5.43646 9.08558 5.8451 9.92622" stroke="#484848" stroke-miterlimit="10" stroke-linecap="round" stroke-linejoin="round"></path>
  </symbol>
  <symbol fill="none" xmlns="http://www.w3.org/2000/svg" viewBox="0 0 27 27" id="campfire">
    <g clip-path="url(#clip0_2_8417)">
      <path d="M22.9654 23.6072L17.5823 20.9024L22.9652 18.1975C23.0944 18.1326 23.2095 18.0429 23.3041 17.9335C23.3986 17.8241 23.4706 17.6972 23.5161 17.5599C23.5616 17.4227 23.5796 17.2778 23.569 17.1336C23.5585 16.9894 23.5197 16.8487 23.4548 16.7195L22.7977 15.4117C22.7328 15.2825 22.643 15.1673 22.5336 15.0728C22.4242 14.9782 22.2972 14.9062 22.16 14.8607C22.0227 14.8153 21.8778 14.7973 21.7336 14.8078C21.5894 14.8183 21.4486 14.8572 21.3194 14.9221L20.1184 15.5249C21.2365 14.0861 22.0928 12.4618 22.6481 10.7263C22.6706 10.6558 22.6714 10.5801 22.6503 10.5092C22.6292 10.4382 22.5873 10.3752 22.5299 10.3284C22.4726 10.2815 22.4025 10.253 22.3287 10.2465C22.255 10.2401 22.181 10.2559 22.1164 10.292L19.2115 11.9162C19.5313 11.087 19.6584 10.1959 19.5832 9.31031C19.508 8.42473 19.2324 7.56783 18.7774 6.80437L18.3977 6.17325C18.3621 6.11385 18.3104 6.06569 18.2487 6.03425C18.1869 6.00282 18.1176 5.98938 18.0486 5.99547C17.9796 6.00157 17.9137 6.02695 17.8584 6.06872C17.8031 6.11048 17.7607 6.16695 17.736 6.23168L17.4764 6.913C17.2404 7.53522 16.8783 8.10191 16.4129 8.57745C15.9474 9.053 15.3885 9.42711 14.7715 9.67629C13.5829 7.73996 12.9448 5.51614 12.926 3.24417L12.9007 0.365715C12.9 0.287603 12.8745 0.211726 12.828 0.149003C12.7814 0.0862787 12.7162 0.0399413 12.6416 0.0166576C12.567 -0.00662616 12.487 -0.00565584 12.413 0.0194289C12.3391 0.0445137 12.2749 0.0924196 12.2299 0.156254L10.2193 3.00391C8.58274 5.31847 7.76894 8.11464 7.90781 10.9459L4.93697 8.52182C4.88085 8.47607 4.81252 8.44782 4.74047 8.44061C4.66842 8.43339 4.59584 8.44753 4.53177 8.48125C4.46769 8.51498 4.41495 8.5668 4.3801 8.63027C4.34526 8.69375 4.32985 8.76607 4.3358 8.83823C4.53219 11.234 5.38058 13.5303 6.789 15.4783L5.68032 14.9212C5.55112 14.8563 5.41041 14.8175 5.2662 14.807C5.122 14.7964 4.97714 14.8144 4.83989 14.8599C4.70263 14.9054 4.57568 14.9774 4.46628 15.0719C4.35688 15.1665 4.26717 15.2816 4.20228 15.4108L3.54499 16.7186C3.41435 16.9796 3.39253 17.2818 3.4843 17.5589C3.57608 17.8359 3.77396 18.0653 4.03458 18.1967L9.41792 20.9024L4.03458 23.6072C3.77372 23.7384 3.57562 23.9677 3.48385 24.2449C3.39207 24.5221 3.41415 24.8244 3.54521 25.0853L4.20228 26.3931C4.26686 26.5225 4.35647 26.6379 4.46592 26.7324C4.57538 26.827 4.7025 26.8989 4.83994 26.944C4.95193 26.9812 5.06915 27.0002 5.18714 27.0004C5.3585 27.0003 5.52744 26.9599 5.68032 26.8825L13.5 22.9535L21.3194 26.8825C21.4724 26.9599 21.6414 27.0003 21.8128 27.0004C21.9308 27.0002 22.048 26.9812 22.16 26.944C22.2975 26.8989 22.4246 26.827 22.534 26.7324C22.6435 26.6379 22.7331 26.5225 22.7977 26.3931L23.4548 25.0853C23.5858 24.8244 23.6079 24.5221 23.5161 24.2449C23.4243 23.9677 23.2262 23.7384 22.9654 23.6072ZM5.34893 26.2229C5.26297 26.2661 5.16337 26.2734 5.07203 26.2431C4.9807 26.2129 4.9051 26.1476 4.86188 26.0617L4.20481 24.7539C4.1616 24.6679 4.15431 24.5683 4.18453 24.477C4.21475 24.3857 4.28001 24.3101 4.36596 24.2668L10.2399 21.3154L12.6773 22.5403L5.34893 26.2229ZM15.2929 17.9507L13.5 18.8512L11.707 17.9507C11.6977 17.8476 11.6931 17.7425 11.6931 17.6343C11.6931 16.4223 12.9425 14.8835 13.4993 14.2578C14.0562 14.8835 15.3054 16.4223 15.3054 17.6343C15.306 17.7427 15.3016 17.8478 15.2929 17.9507ZM21.6519 15.5819C21.6944 15.5605 21.7408 15.5477 21.7883 15.5443C21.8358 15.5408 21.8835 15.5467 21.9287 15.5617C21.9739 15.5767 22.0157 15.6005 22.0518 15.6316C22.0878 15.6628 22.1173 15.7007 22.1387 15.7433L22.7958 17.0511C22.839 17.1371 22.8462 17.2367 22.816 17.328C22.7857 17.4194 22.7204 17.4949 22.6344 17.5381L16.76 20.4892L14.3226 19.2642L21.6519 15.5819ZM7.90128 15.7148C6.46379 13.9841 5.52265 11.896 5.17807 9.6727L8.11453 12.0673C8.17152 12.1137 8.24109 12.1421 8.31432 12.1488C8.38755 12.1555 8.46111 12.1402 8.52557 12.1048C8.59002 12.0694 8.64244 12.0155 8.67609 11.9501C8.70974 11.8848 8.72309 11.8108 8.71444 11.7378C8.36513 8.80298 9.11615 5.84288 10.8223 3.42958L12.1723 1.51743L12.1875 3.25092C12.2088 5.76317 12.9449 8.21745 14.3096 10.3268C14.3542 10.3957 14.4205 10.4477 14.498 10.4748C14.5755 10.5018 14.6598 10.5023 14.7375 10.4762C15.5129 10.2156 16.2212 9.78738 16.8121 9.22185C17.403 8.65632 17.8619 7.96745 18.1562 7.20431C18.6439 8.03121 18.8892 8.97863 18.8641 9.93832C18.839 10.898 18.5444 11.8313 18.014 12.6315C17.9679 12.7005 17.9463 12.7829 17.9528 12.8656C17.9592 12.9483 17.9934 13.0265 18.0497 13.0874C18.106 13.1483 18.1812 13.1885 18.2631 13.2015C18.345 13.2144 18.4289 13.1994 18.5013 13.1589L21.6211 11.4159C20.8849 13.2815 19.7784 14.9787 18.3684 16.405L16.8942 17.1456L16.0422 17.5738C15.9968 15.7304 13.8544 13.5466 13.7622 13.4535C13.6915 13.3861 13.5976 13.3485 13.5 13.3485C13.4023 13.3485 13.3084 13.3861 13.2378 13.4535C13.1456 13.5466 11.0031 15.7304 10.9578 17.5738L8.36112 16.2689L7.90128 15.7148ZM22.7952 24.7547L22.1381 26.0625C22.1167 26.1051 22.0871 26.143 22.0511 26.1741C22.0151 26.2053 21.9732 26.229 21.928 26.244C21.8828 26.2589 21.8351 26.2648 21.7876 26.2614C21.7401 26.2579 21.6938 26.2451 21.6512 26.2237L4.36639 17.5379C4.28056 17.4946 4.21541 17.419 4.1852 17.3277C4.155 17.2364 4.1622 17.1369 4.20523 17.0509L4.86251 15.7431C4.95342 15.6521 5.03126 15.4623 5.34935 15.5819L22.6336 24.2668C22.7195 24.3101 22.7848 24.3857 22.815 24.477C22.8452 24.5683 22.8379 24.6679 22.7947 24.7539L22.7952 24.7547Z" fill="#484848"></path>
    </g>
    <defs>
      <clipPath id="clip0_2_8417">
        <rect width="27" height="27" fill="white"></rect>
      </clipPath>
    </defs>
  </symbol>
  <symbol fill="none" xmlns="http://www.w3.org/2000/svg" viewBox="0 0 27 27" id="cat">
    <g clip-path="url(#clip0_2_8406)">
      <path d="M8.34995 7.18274C8.34995 6.62099 7.99564 6.18079 7.54328 6.18079C7.09113 6.18079 6.73682 6.62079 6.73682 7.18274C6.73682 7.74448 7.09113 8.18448 7.54328 8.18448C7.99564 8.18448 8.34995 7.74448 8.34995 7.18274Z" fill="#484848"></path>
      <path d="M15.0194 7.18274C15.0194 6.62099 14.6651 6.18079 14.213 6.18079C13.7606 6.18079 13.4063 6.62079 13.4063 7.18274C13.4063 7.74448 13.7606 8.18448 14.213 8.18448C14.6651 8.18448 15.0194 7.74448 15.0194 7.18274Z" fill="#484848"></path>
      <path d="M10.8781 10.2424C11.0977 10.2424 11.2755 10.0646 11.2755 9.84499V8.95407C11.7396 8.821 12.099 8.46957 12.099 8.09178C12.099 7.95335 12.0457 7.61861 11.5519 7.50182C11.39 7.4635 11.1886 7.44702 10.8781 7.44702C10.5679 7.44702 10.3664 7.4635 10.2043 7.50182C9.71055 7.61861 9.6572 7.95335 9.6572 8.09178C9.6572 8.46957 10.0167 8.821 10.4808 8.95407V9.84499C10.4808 10.0646 10.6587 10.2424 10.8781 10.2424Z" fill="#484848"></path>
      <path d="M20.0613 11.0343C20.5513 12.1757 21.1613 13.596 21.042 15.1828C20.9483 16.428 20.5975 17.7239 20.0541 18.8318C19.9575 19.0289 20.0388 19.2668 20.236 19.3634C20.2922 19.391 20.3519 19.4042 20.4107 19.4042C20.5575 19.4042 20.6986 19.3224 20.7678 19.1817C21.3545 17.9851 21.7333 16.5862 21.8345 15.2423C21.9686 13.4613 21.316 11.9417 20.7915 10.7206C20.4916 10.022 20.2325 9.41868 20.2096 8.96693C20.1853 8.48614 20.5967 7.9965 21.0902 7.91904C21.3766 7.87393 22.3589 7.90586 22.9732 10.2052C23.0299 10.4171 23.2476 10.543 23.4598 10.4865C23.6717 10.4299 23.7978 10.212 23.7412 9.99999C23.462 8.95601 23.0618 8.1788 22.5511 7.68998C22.0854 7.244 21.5222 7.04666 20.9666 7.1338C20.0664 7.27531 19.3706 8.11556 19.4159 9.0071C19.446 9.60139 19.7311 10.2655 20.0613 11.0343Z" fill="#484848"></path>
      <path d="M24.2131 14.4915C24.2133 13.4293 24.1581 12.4614 24.0489 11.6143C24.0211 11.3966 23.8215 11.2431 23.6042 11.2709C23.3865 11.299 23.2328 11.4982 23.2606 11.7157C23.3654 12.5294 23.4184 13.4631 23.4182 14.4912C23.4178 16.4601 22.9959 18.229 22.1643 19.749C21.4996 20.9644 20.5707 22.0281 19.4038 22.9106C18.8931 23.2968 18.38 23.6145 17.8984 23.8738C18.0813 23.4676 18.1715 23.0012 18.1715 22.469C18.1715 22.416 18.1703 22.36 18.1682 22.3025C18.8033 21.8658 19.377 21.3098 19.8757 20.6457C20.0075 20.4702 19.9721 20.2212 19.7966 20.0893C19.6211 19.9575 19.3721 19.9929 19.2402 20.1684C18.8915 20.6327 18.5034 21.0369 18.0817 21.3766C17.7041 18.5852 16.2418 13.5159 15.8141 12.0665C16.511 11.8049 17.1799 11.2306 17.5984 10.4019L18.1643 10.7094C18.3549 10.8126 18.6 10.7401 18.7032 10.5498C18.808 10.357 18.7366 10.1157 18.5438 10.0109L17.8844 9.65266C17.9629 9.36386 18.0131 9.05384 18.0298 8.72404L18.6834 8.6124C18.8999 8.57552 19.0453 8.37035 19.0085 8.15385C18.9714 7.93756 18.7662 7.79234 18.5497 7.829L17.9734 7.92726C17.6802 6.28302 16.4247 4.21546 16.1085 3.71346C16.1188 3.4467 16.1332 2.81244 16.0745 2.15409C15.9575 0.841496 15.6086 0.142972 15.0079 0.0187579C14.4181 -0.102984 13.8249 0.368535 13.1941 1.46112C12.9288 1.92049 12.7168 2.38521 12.598 2.66207H9.15828C9.03942 2.38521 8.82745 1.92049 8.56213 1.46112C7.93138 0.368535 7.33812 -0.10319 6.74836 0.0187579C6.14768 0.142972 5.79873 0.841496 5.68172 2.15409C5.62301 2.81224 5.63743 3.4467 5.64794 3.71346C5.33153 4.21546 4.07621 6.28302 3.78287 7.92726L3.2065 7.829C2.99021 7.79213 2.78484 7.93756 2.74796 8.15385C2.71109 8.37035 2.85652 8.57552 3.07281 8.6124L3.72643 8.72404C3.74312 9.05384 3.79359 9.36386 3.87186 9.65266L3.21248 10.0109C3.01967 10.1157 2.94839 10.357 3.05304 10.5498C3.15645 10.7401 3.40137 10.8128 3.59192 10.7094L4.15778 10.4019C4.57657 11.2308 5.24543 11.8051 5.94251 12.0665C5.82921 12.4513 5.64135 13.0973 5.42135 13.8836C5.36223 14.0949 5.48562 14.3143 5.69697 14.3734C5.90832 14.4327 6.1277 14.3091 6.18682 14.0978C6.5436 12.8219 6.8153 11.9188 6.81798 11.9097C6.88514 11.6873 6.74012 11.4485 6.51208 11.4048C5.56472 11.2238 4.57533 10.2123 4.51724 8.63011C4.49335 7.97752 4.80316 6.98381 5.41331 5.75671C5.88833 4.80172 6.3788 4.04552 6.38375 4.0381C6.4301 3.96683 6.45234 3.88278 6.4474 3.79791C6.44699 3.79029 6.40311 3.01473 6.47336 2.22474C6.57306 1.10702 6.8219 0.815129 6.90944 0.797207C6.99637 0.778668 7.33853 0.933575 7.86999 1.85189C8.2482 2.50531 8.52011 3.19703 8.52279 3.20404C8.58211 3.35647 8.72919 3.45679 8.89296 3.45679H12.8635C13.0272 3.45679 13.1741 3.35647 13.2337 3.20404C13.2363 3.19703 13.5049 2.51231 13.8823 1.85869C14.4161 0.934605 14.7599 0.77908 14.847 0.797207C14.9341 0.815129 15.1821 1.10558 15.2823 2.21733C15.3533 3.00752 15.3094 3.79029 15.3088 3.79812C15.3041 3.88278 15.3263 3.96704 15.3727 4.0381C15.3776 4.04552 15.8681 4.80172 16.3431 5.75691C16.9533 6.98381 17.2631 7.97752 17.239 8.63011C17.1811 10.2123 16.1915 11.2238 15.2441 11.4048C15.0161 11.4485 14.8713 11.6875 14.9382 11.9099C14.9628 11.9909 17.3768 20.0331 17.3768 22.469C17.3768 23.2839 17.1234 23.8631 16.5796 24.292C16.1171 24.6566 15.4324 24.9197 14.4985 25.0908C14.7189 24.2207 14.9144 23.0146 15.0798 21.5064C15.3599 18.9518 15.4594 16.3641 15.4604 16.3384C15.4687 16.119 15.2977 15.9344 15.0783 15.9262C14.8606 15.9169 14.6746 16.0889 14.6661 16.3083C14.6653 16.3322 14.573 18.7279 14.3168 21.1679C14.167 22.5921 13.9919 23.7507 13.7962 24.6111C13.5132 25.8547 13.2633 26.1377 13.1918 26.1958C13.0839 26.1159 12.5633 25.5364 12.2628 21.7171C12.0898 19.5179 12.0795 17.3558 12.0795 17.3342C12.0786 17.1152 11.9009 16.9382 11.6821 16.9382C11.6817 16.9382 11.6811 16.9382 11.6805 16.9382C11.4611 16.9391 11.2839 17.1177 11.2847 17.337C11.2847 17.3605 11.2957 19.6965 11.4887 22.0022C11.6028 23.3677 11.7579 24.4599 11.9497 25.2486C11.9559 25.2742 11.9625 25.2999 11.9689 25.3261C11.6279 25.3366 11.2674 25.342 10.8781 25.342C10.4888 25.342 10.1285 25.3366 9.78738 25.3261C9.79397 25.2999 9.80036 25.274 9.80654 25.2486C9.99832 24.4599 10.1536 23.3677 10.2678 22.0022C10.4606 19.6965 10.4715 17.3605 10.4717 17.337C10.4725 17.1177 10.2952 16.9391 10.0758 16.9382C10.0752 16.9382 10.0747 16.9382 10.0741 16.9382C9.85536 16.9382 9.67759 17.1152 9.67676 17.3342C9.67676 17.3558 9.66667 19.514 9.49384 21.7132C9.19329 25.5362 8.67234 26.1159 8.5644 26.1958C8.51475 26.1554 8.37941 26.0067 8.20679 25.5049C8.19999 25.4701 8.18887 25.4367 8.17363 25.4056C8.10647 25.198 8.03437 24.938 7.96001 24.6111C7.76432 23.7507 7.58922 22.5921 7.43947 21.1679C7.18321 18.7279 7.09092 16.3322 7.0901 16.3083C7.08165 16.0889 6.89708 15.9167 6.67791 15.9262C6.45852 15.9344 6.28755 16.119 6.29579 16.3384C6.29682 16.3641 6.39652 18.9518 6.67647 21.5064C6.84188 23.0148 7.03757 24.2207 7.25799 25.0908C6.32586 24.9201 5.64217 24.6581 5.17992 24.2947C4.63383 23.8654 4.37943 23.2853 4.37943 22.469C4.37943 21.3947 4.86022 19.0274 5.76948 15.6232C5.82612 15.411 5.70026 15.1933 5.48809 15.1366C5.27633 15.0802 5.05839 15.2058 5.00153 15.418C4.06138 18.9376 3.58471 21.31 3.58471 22.469C3.58471 23.5339 3.94582 24.3355 4.68863 24.9195C5.32185 25.4171 6.24923 25.7517 7.51815 25.9393C7.74331 26.5239 8.06424 27 8.55966 27C9.02603 27 9.32863 26.5981 9.53421 26.1126C9.95053 26.1286 10.3928 26.1367 10.8781 26.1367C11.3634 26.1367 11.8057 26.1286 12.222 26.1126C12.4276 26.5981 12.7302 27 13.1966 27C13.6922 27 14.0129 26.5239 14.2383 25.9393C14.7009 25.8707 15.1177 25.7824 15.4918 25.674C15.6668 25.6376 24.211 23.6905 24.2131 14.4915Z" fill="#484848"></path>
    </g>
    <defs>
      <clipPath id="clip0_2_8406">
        <rect width="27" height="27" fill="white"></rect>
      </clipPath>
    </defs>
  </symbol>
  <symbol fill="none" xmlns="http://www.w3.org/2000/svg" viewBox="0 0 17 27" id="fireshow">
    <path d="M8.50002 21.1992C3.72694 21.1992 0.287348 16.6115 1.61578 12.0171C1.61578 12.0171 3.08838 6.55862 3.47671 5.12636L5.44892 6.70416C8.49248 4.9402 7.91103 0.791076 7.91103 0.791076C7.91103 0.791076 11.1561 4.1571 11.5819 6.70416L13.5541 5.12636C13.5051 5.16538 15.3902 12.0379 15.3902 12.0379C16.7024 16.6276 13.2641 21.1992 8.50002 21.1992Z" stroke="#484848" stroke-miterlimit="10" stroke-linecap="round" stroke-linejoin="round"></path>
    <path d="M12.5146 14.0119C12.5146 16.2339 10.7172 18.0352 8.50001 18.0352C6.2828 18.0352 4.48535 16.2339 4.48535 14.0119C4.48535 11.7898 6.2828 9.98855 8.50001 9.98855C10.7172 9.98855 12.5146 11.7898 12.5146 14.0119Z" stroke="#484848" stroke-miterlimit="10" stroke-linecap="round" stroke-linejoin="round"></path>
    <path d="M8.5 18.0352V26.209" stroke="#484848" stroke-miterlimit="10" stroke-linecap="round" stroke-linejoin="round"></path>
    <path d="M3.64697 26.209H13.3529" stroke="#484848" stroke-miterlimit="10" stroke-linecap="round" stroke-linejoin="round"></path>
  </symbol>
  <symbol fill="none" xmlns="http://www.w3.org/2000/svg" viewBox="0 0 27 27" id="food-service">
    <path d="M23.8166 12.0498H3.12769C3.12769 6.79995 7.38355 2.54409 12.6334 2.54409H14.3109C19.5607 2.54409 23.8166 6.79995 23.8166 12.0498Z" stroke="#484848" stroke-miterlimit="10" stroke-linecap="round" stroke-linejoin="round"></path>
    <path d="M13.4722 2.54419V0.791357" stroke="#484848" stroke-miterlimit="10" stroke-linecap="round" stroke-linejoin="round"></path>
    <path d="M1.31787 12.0498H25.6265" stroke="#484848" stroke-miterlimit="10" stroke-linecap="round" stroke-linejoin="round"></path>
    <path d="M4.26904 9.13428H6.09338" stroke="#484848" stroke-miterlimit="10" stroke-linecap="round" stroke-linejoin="round"></path>
    <path d="M9.18188 25.3433H14.9575C16.0304 25.3433 17.0924 25.1283 18.0808 24.711L26.2089 21.2799C26.1871 19.7235 24.704 18.6051 23.2016 19.012L17.1819 20.6422H13.4884" stroke="#484848" stroke-miterlimit="10" stroke-linecap="round" stroke-linejoin="round"></path>
    <path d="M11.489 25.3428H6.09323L6.08447 22.4729V18.41C6.08447 16.825 7.36934 15.5401 8.95432 15.5401C9.96935 15.5401 10.8606 16.0675 11.3708 16.8628H15.3082C16.3519 16.8628 17.1979 17.7088 17.1979 18.7525C17.1979 19.7961 16.3519 20.6422 15.3082 20.6422H11.8242L10.9823 21.4841" stroke="#484848" stroke-miterlimit="10" stroke-linecap="round" stroke-linejoin="round"></path>
    <path d="M3.98397 26.2095H0.791016V15.7109H3.98397C5.14892 15.7109 6.09334 16.6553 6.09334 17.8203V24.1001C6.09334 25.2651 5.14892 26.2095 3.98397 26.2095Z" stroke="#484848" stroke-miterlimit="10" stroke-linecap="round" stroke-linejoin="round"></path>
  </symbol>
   <symbol fill="none" xmlns="http://www.w3.org/2000/svg" viewBox="0 0 65 65" id="branches">
    <g clip-path="url(#clip0_2_8240)">
      <path d="M32.5 14.6775C35.3904 14.6775 37.7419 12.3259 37.7419 9.43554C37.7419 6.54514 35.3904 4.1936 32.5 4.1936C29.6096 4.1936 27.2581 6.54514 27.2581 9.43554C27.2581 12.3259 29.6096 14.6775 32.5 14.6775ZM32.5 6.29038C34.234 6.29038 35.6452 7.70151 35.6452 9.43554C35.6452 11.1696 34.234 12.5807 32.5 12.5807C30.766 12.5807 29.3548 11.1696 29.3548 9.43554C29.3548 7.70151 30.766 6.29038 32.5 6.29038Z" fill="#F7921E"></path>
      <path d="M32.5 24.743L39.8681 15.5329C41.2016 13.867 41.9355 11.7734 41.9355 9.63887V9.43548C41.9355 4.23339 37.7021 0 32.5 0C27.2979 0 23.0645 4.23339 23.0645 9.43548V9.63887C23.0645 11.7734 23.7984 13.867 25.1319 15.5329L32.5 24.743ZM25.1613 9.43548C25.1613 5.38871 28.4532 2.09677 32.5 2.09677C36.5468 2.09677 39.8387 5.38871 39.8387 9.43548V9.63887C39.8387 11.2985 39.2673 12.9277 38.2305 14.2235L32.5 21.386L26.7695 14.2224C25.7327 12.9277 25.1613 11.2985 25.1613 9.63887V9.43548Z" fill="#F7921E"></path>
      <path d="M55.5645 4.1936C52.6741 4.1936 50.3226 6.54514 50.3226 9.43554C50.3226 12.3259 52.6741 14.6775 55.5645 14.6775C58.4549 14.6775 60.8064 12.3259 60.8064 9.43554C60.8064 6.54514 58.4549 4.1936 55.5645 4.1936ZM55.5645 12.5807C53.8305 12.5807 52.4193 11.1696 52.4193 9.43554C52.4193 7.70151 53.8305 6.29038 55.5645 6.29038C57.2985 6.29038 58.7097 7.70151 58.7097 9.43554C58.7097 11.1696 57.2985 12.5807 55.5645 12.5807Z" fill="#F7921E"></path>
      <path d="M55.5645 0C50.3624 0 46.129 4.23339 46.129 9.43548V9.63887C46.129 11.7734 46.8629 13.867 48.1964 15.5329L55.5645 24.743L62.9326 15.5329C64.2661 13.867 65 11.7734 65 9.63887V9.43548C65 4.23339 60.7666 0 55.5645 0V0ZM62.9032 9.63887C62.9032 11.2985 62.3319 12.9277 61.295 14.2235L55.5645 21.386L49.834 14.2224C48.7972 12.9277 48.2258 11.2985 48.2258 9.63887V9.43548C48.2258 5.38871 51.5177 2.09677 55.5645 2.09677C59.6113 2.09677 62.9032 5.38871 62.9032 9.43548V9.63887Z" fill="#F7921E"></path>
      <path d="M9.43548 14.6775C12.3259 14.6775 14.6774 12.3259 14.6774 9.43554C14.6774 6.54514 12.3259 4.1936 9.43548 4.1936C6.54507 4.1936 4.19354 6.54514 4.19354 9.43554C4.19354 12.3259 6.54507 14.6775 9.43548 14.6775ZM9.43548 6.29038C11.1695 6.29038 12.5806 7.70151 12.5806 9.43554C12.5806 11.1696 11.1695 12.5807 9.43548 12.5807C7.70145 12.5807 6.29032 11.1696 6.29032 9.43554C6.29032 7.70151 7.70145 6.29038 9.43548 6.29038Z" fill="#F7921E"></path>
      <path d="M9.43548 24.743L16.8035 15.5329C18.1371 13.867 18.871 11.7734 18.871 9.63887V9.43548C18.871 4.23339 14.6376 0 9.43548 0C4.23339 0 0 4.23339 0 9.43548V9.63887C0 11.7734 0.733871 13.867 2.06742 15.5329L9.43548 24.743ZM2.09677 9.43548C2.09677 5.38871 5.38871 2.09677 9.43548 2.09677C13.4823 2.09677 16.7742 5.38871 16.7742 9.43548V9.63887C16.7742 11.2985 16.2028 12.9277 15.166 14.2235L9.43548 21.386L3.705 14.2224C2.66814 12.9277 2.09677 11.2985 2.09677 9.63887V9.43548Z" fill="#F7921E"></path>
      <path d="M62.9032 42.013V30.1348C62.9032 28.8201 62.0121 27.7214 60.8064 27.3786V23.0645H58.7097V27.5264L56.6129 28.1554V26.2096H54.5161V28.7845L50.2754 30.0572C49.0498 30.4252 48.2258 31.5323 48.2258 32.8124V33.5483H41.9355V31.4515C41.9355 30.2952 40.9951 29.3548 39.8387 29.3548H37.7419V27.258H35.6452V29.3548H33.5484V25.1612H31.4516V29.3548H29.3548V27.258H27.2581V29.3548H25.1613C24.0049 29.3548 23.0645 30.2952 23.0645 31.4515V33.5483H16.7742V32.8124C16.7742 31.5323 15.9502 30.4252 14.7235 30.0561L10.4839 28.7845V26.2096H8.3871V28.1554L6.29032 27.5264V23.0645H4.19355V27.3796C2.9879 27.7224 2.09677 28.8211 2.09677 30.1358V42.013C0.897419 42.294 0 43.3665 0 44.6497C0 45.1089 0.117419 45.5649 0.341774 45.9675L0.432984 46.1321C6.89944 57.7703 19.1865 64.9999 32.5 64.9999C45.8135 64.9999 58.1006 57.7703 64.567 46.1321L64.6593 45.9665C64.8826 45.5639 65 45.1089 65 44.6486C65 43.3654 64.1026 42.294 62.9032 42.013ZM50.3226 32.8124C50.3226 32.4653 50.5459 32.1645 50.8782 32.0649L59.8031 29.3873C60.2896 29.2436 60.8064 29.6295 60.8064 30.1348V41.9354H54.5161V35.6451C54.5161 34.4887 53.5757 33.5483 52.4194 33.5483H50.3226V32.8124ZM52.4194 35.6451V41.9354H41.9355V35.6451H52.4194ZM25.1613 31.4515H39.8387V35.6451V41.9354H25.1613V35.6451V31.4515ZM23.0645 41.9354H12.5806V35.6451H23.0645V41.9354ZM5.1979 29.3883L14.1207 32.0649C14.4541 32.1645 14.6774 32.4653 14.6774 32.8124V33.5483H12.5806C11.4243 33.5483 10.4839 34.4887 10.4839 35.6451V41.9354H4.19355V30.1348C4.19355 29.6295 4.70935 29.2395 5.1979 29.3883ZM2.26556 45.1131L2.17435 44.9485C2.12298 44.8573 2.09677 44.7535 2.09677 44.6486C2.09677 44.309 2.37355 44.0322 2.71323 44.0322H20.9677V45.0806C20.9677 45.6582 20.497 46.129 19.9194 46.129H13.629C11.895 46.129 10.4839 47.5401 10.4839 49.2741C10.4839 51.0082 11.895 52.4193 13.629 52.4193H26.2097C26.7873 52.4193 27.2581 52.89 27.2581 53.4677C27.2581 54.0453 26.7873 54.5161 26.2097 54.5161H24.1129C22.3789 54.5161 20.9677 55.9272 20.9677 57.6612C20.9677 59.3953 22.3789 60.8064 24.1129 60.8064C24.6906 60.8064 25.1613 61.2771 25.1613 61.8548V62.1032C15.5581 60.0149 7.14895 53.9028 2.26556 45.1131ZM27.2581 62.489V61.8548C27.2581 60.1207 25.8469 58.7096 24.1129 58.7096C23.5352 58.7096 23.0645 58.2389 23.0645 57.6612C23.0645 57.0836 23.5352 56.6128 24.1129 56.6128H26.2097C27.9437 56.6128 29.3548 55.2017 29.3548 53.4677C29.3548 51.7336 27.9437 50.3225 26.2097 50.3225H13.629C13.0514 50.3225 12.5806 49.8518 12.5806 49.2741C12.5806 48.6965 13.0514 48.2257 13.629 48.2257H19.9194C21.6534 48.2257 23.0645 46.8146 23.0645 45.0806V44.0322H37.7419V45.0806C37.7419 46.8146 39.1531 48.2257 40.8871 48.2257H51.371C51.9486 48.2257 52.4194 48.6965 52.4194 49.2741C52.4194 49.8518 51.9486 50.3225 51.371 50.3225H45.0806C43.3466 50.3225 41.9355 51.7336 41.9355 53.4677C41.9355 54.0453 41.4648 54.5161 40.8871 54.5161H36.6935C34.9595 54.5161 33.5484 55.9272 33.5484 57.6612C33.5484 59.3953 34.9595 60.8064 36.6935 60.8064C37.2712 60.8064 37.7419 61.2771 37.7419 61.8548V62.489C36.0215 62.7532 34.2718 62.9032 32.5 62.9032C30.7282 62.9032 28.9785 62.7532 27.2581 62.489ZM62.8256 44.9485L62.7344 45.1131C57.851 53.9028 49.4419 60.0149 39.8387 62.1032V61.8548C39.8387 60.1207 38.4276 58.7096 36.6935 58.7096C36.1159 58.7096 35.6452 58.2389 35.6452 57.6612C35.6452 57.0836 36.1159 56.6128 36.6935 56.6128H40.8871C42.6211 56.6128 44.0323 55.2017 44.0323 53.4677C44.0323 52.89 44.503 52.4193 45.0806 52.4193H51.371C53.105 52.4193 54.5161 51.0082 54.5161 49.2741C54.5161 47.5401 53.105 46.129 51.371 46.129H40.8871C40.3094 46.129 39.8387 45.6582 39.8387 45.0806V44.0322H62.2868C62.6264 44.0322 62.9032 44.309 62.9032 44.6486C62.9032 44.7535 62.877 44.8573 62.8256 44.9485Z" fill="#F7921E"></path>
      <path d="M14.6774 37.7419H16.7742V39.8387H14.6774V37.7419Z" fill="#F7921E"></path>
      <path d="M18.871 37.7419H20.9677V39.8387H18.871V37.7419Z" fill="#F7921E"></path>
      <path d="M27.2581 33.5483H29.3548V35.6451H27.2581V33.5483Z" fill="#F7921E"></path>
      <path d="M31.4516 33.5483H33.5484V35.6451H31.4516V33.5483Z" fill="#F7921E"></path>
      <path d="M27.2581 37.7419H29.3548V39.8387H27.2581V37.7419Z" fill="#F7921E"></path>
      <path d="M31.4516 37.7419H33.5484V39.8387H31.4516V37.7419Z" fill="#F7921E"></path>
      <path d="M35.6452 33.5483H37.7419V35.6451H35.6452V33.5483Z" fill="#F7921E"></path>
      <path d="M35.6452 37.7419H37.7419V39.8387H35.6452V37.7419Z" fill="#F7921E"></path>
      <path d="M6.29031 37.7419H8.38709V39.8387H6.29031V37.7419Z" fill="#F7921E"></path>
      <path d="M6.29031 33.5483H8.38709V35.6451H6.29031V33.5483Z" fill="#F7921E"></path>
      <path d="M48.2258 37.7419H50.3226V39.8387H48.2258V37.7419Z" fill="#F7921E"></path>
      <path d="M44.0323 37.7419H46.129V39.8387H44.0323V37.7419Z" fill="#F7921E"></path>
      <path d="M56.6129 37.7419H58.7097V39.8387H56.6129V37.7419Z" fill="#F7921E"></path>
      <path d="M56.6129 33.5483H58.7097V35.6451H56.6129V33.5483Z" fill="#F7921E"></path>
    </g>
    <defs>
      <clipPath id="clip0_2_8240">
        <rect width="65" height="65" fill="white"></rect>
      </clipPath>
    </defs>
  </symbol>
  <symbol fill="none" xmlns="http://www.w3.org/2000/svg" viewBox="0 0 65 65" id="camping2">
    <g clip-path="url(#clip0_2_8266)">
      <path d="M48.1009 62.625H45.9492V64.7768H48.1009V62.625Z" fill="#F7921E"></path>
      <path d="M40.4437 45.9803L38.549 47.0005L46.0803 60.9877L47.975 59.9675L40.4437 45.9803Z" fill="#F7921E"></path>
      <path d="M12.9118 31.1089L14.4331 29.5876L8.29297 23.4475V20.0347L12.9118 24.6535L14.4331 23.1322L7.97774 16.6769L7.97021 16.6844C7.57199 16.2644 6.90884 16.2466 6.4887 16.6449C6.47727 16.6556 6.46624 16.6666 6.45535 16.6779L0 23.1333L1.52131 24.6546L6.14119 20.0347V23.4475L0.00107589 29.5876L1.52239 31.1089L6.14119 26.4901V29.9028L0.00107589 36.0429L1.52239 37.5642L6.14119 32.9454V36.3582L0.00107589 42.4983L1.52239 44.0196L6.14119 39.4008V64.7768H8.29297V39.4008L12.9118 44.0196L14.4331 42.4983L8.29297 36.3582V32.9454L12.9118 37.5642L14.4331 36.0429L8.29297 29.9028V26.4901L12.9118 31.1089Z" fill="#F7921E"></path>
      <path d="M63.4787 35.4125L65 33.8912L58.8599 27.7511V24.3384L63.4787 28.9572L65 27.4358L58.5446 20.9805L58.5371 20.988C58.1389 20.568 57.4756 20.5503 57.0556 20.9485C57.0442 20.9593 57.0331 20.9703 57.0223 20.9816L50.5669 27.4369L52.0882 28.9582L56.7081 24.3384V27.7511L50.568 33.8912L52.0893 35.4125L56.7081 30.7937V34.2064L50.568 40.3465L52.0893 41.8679L56.7081 37.2491V47.5626L54.4487 42.7996C54.2717 42.4246 53.895 42.1848 53.4804 42.1831H39.4938V34.0214L44.1126 38.6402L45.6339 37.1189L39.4938 30.9788V27.566L44.1126 32.1848L45.6339 30.6635L39.4938 24.5234V21.1107L44.1126 25.7295L45.6339 24.2082L39.4938 18.0681V14.6553L44.1126 19.2741L45.6339 17.7528L39.1786 11.2975L39.1711 11.305C38.7728 10.885 38.1096 10.8673 37.6895 11.2655C37.6781 11.2762 37.6671 11.2873 37.6562 11.2985L31.2008 17.7539L32.7222 19.2752L37.342 14.6553V18.0681L31.2019 24.2082L32.7232 25.7295L37.342 21.1107V24.5234L31.2019 30.6635L32.7232 32.1848L37.342 27.566V30.9788L31.2019 37.1189L32.7232 38.6402L37.342 34.0214V42.1831H22.2796C21.976 42.1848 21.6878 42.3165 21.4877 42.5446C21.4241 42.6082 21.3702 42.6807 21.3274 42.7598L10.5685 63.2017C10.2928 63.7281 10.496 64.3783 11.0224 64.654C11.1761 64.7346 11.3471 64.7767 11.5206 64.7768H43.7974V62.625H33.684L24.0612 44.3349H52.7994L61.4635 62.625H50.2527V64.7768H63.1634C63.7576 64.7745 64.2374 64.2911 64.2353 63.6969C64.2348 63.539 64.1994 63.3831 64.1317 63.2405L58.8599 52.1039V37.2491L63.4787 41.8679L65 40.3465L58.8599 34.2064V30.7937L63.4787 35.4125ZM21.2037 62.625H13.3023L21.2037 47.6131V62.625ZM31.2568 62.625H23.3554V47.6131L31.2568 62.625Z" fill="#F7921E"></path>
      <path d="M20.6657 0.223145C20.0716 0.223279 19.59 0.705009 19.5901 1.29931C19.5901 1.58455 19.7035 1.85796 19.9051 2.05969C21.0162 3.05825 21.7342 4.42074 21.9299 5.9017C22.1338 7.71808 20.8267 9.35585 19.0104 9.55973C18.7649 9.5873 18.5172 9.5873 18.2719 9.55973L18.2751 9.5565C16.7941 9.36083 15.4317 8.6428 14.4331 7.53168C14.0128 7.11154 13.3317 7.11168 12.9115 7.53195C12.7099 7.73368 12.5966 8.00722 12.5966 8.29233C12.5966 12.7488 16.2093 16.3615 20.6657 16.3615C25.1222 16.3615 28.7349 12.7488 28.7349 8.29233C28.7349 3.83585 25.1222 0.223145 20.6657 0.223145ZM25.9945 10.8715C24.57 13.8129 21.0309 15.0426 18.0897 13.6181C16.8922 13.0382 15.9251 12.0717 15.3445 10.8745C16.2013 11.336 17.1441 11.6162 18.1139 11.6975C19.7362 11.8451 21.3413 11.2713 22.5024 10.1289C24.3196 8.17452 24.6237 5.25334 23.248 2.96667C26.1892 4.39115 27.4188 7.93029 25.9945 10.8715Z" fill="#F7921E"></path>
    </g>
    <defs>
      <clipPath id="clip0_2_8266">
        <rect width="65" height="65" fill="white"></rect>
      </clipPath>
    </defs>
  </symbol>
  <symbol fill="none" xmlns="http://www.w3.org/2000/svg" viewBox="0 0 65 65" id="camping">
    <path d="M33.7248 20.7716L36.3888 16.8177L34.7049 15.6823L32.5 18.9546L30.2951 15.6823L28.6112 16.8177L31.2752 20.7716L25.2515 29.7091C24.9381 27.5735 24.0618 25.56 22.7124 23.8753C23.1425 22.7368 23.3617 21.5295 23.3594 20.3125C23.355 18.8599 23.0402 17.425 22.436 16.1039C21.8319 14.7828 20.9524 13.6061 19.8565 12.6527C20.2621 11.5768 20.4007 10.4186 20.2604 9.27739C20.1201 8.13619 19.7051 7.04603 19.0511 6.10042C18.397 5.1548 17.5233 4.38194 16.5049 3.84811C15.4866 3.31427 14.3539 3.0354 13.2041 3.0354C12.0543 3.0354 10.9217 3.31427 9.90336 3.84811C8.885 4.38194 8.01132 5.1548 7.35723 6.10042C6.70314 7.04603 6.28816 8.13619 6.14788 9.27739C6.00759 10.4186 6.1462 11.5768 6.5518 12.6527C5.45549 13.606 4.57561 14.7826 3.97112 16.1036C3.36664 17.4247 3.05152 18.8597 3.04687 20.3125C3.04575 21.5301 3.26635 22.7378 3.69789 23.8763C2.31363 25.5984 1.42453 27.665 1.12605 29.8542C0.827577 32.0434 1.131 34.2725 2.00373 36.3023C2.87647 38.3321 4.28557 40.0858 6.07974 41.3752C7.87391 42.6647 9.9854 43.4411 12.1875 43.6211V49.0953L3.52219 61.9531H1.01562V63.9844H63.9844V61.9531H61.4778L33.7248 20.7716ZM34.9436 45.0369L38.8822 49.6316C41.9727 53.2273 45.7718 56.1468 50.0419 58.2075L46.668 61.5824C41.3852 57.183 37.3439 51.4794 34.9446 45.0369H34.9436ZM32.5 44.2051C34.7305 51.0133 38.6861 57.1278 43.9816 61.9531H21.0234C26.3171 57.1272 30.2709 51.0127 32.5 44.2051ZM52.5149 58.6087C52.6322 58.4913 52.719 58.347 52.7676 58.1884C52.8163 58.0298 52.8253 57.8616 52.794 57.6987C52.7626 57.5357 52.6918 57.383 52.5877 57.2537C52.4837 57.1245 52.3495 57.0227 52.197 56.9573C47.6649 55.0088 43.6376 52.0513 40.4219 48.3102L33.5156 40.2492V24.0947L59.0291 61.9531H49.1705L52.5149 58.6087ZM3.04687 31.4844C3.04904 28.9938 3.96847 26.5913 5.62961 24.7356C5.76048 24.5891 5.84606 24.4078 5.87599 24.2136C5.90591 24.0195 5.87889 23.8208 5.7982 23.6417C5.03159 21.9486 4.87149 20.043 5.34483 18.2457C5.81816 16.4483 6.89605 14.8689 8.39719 13.7729C8.59075 13.6295 8.72705 13.422 8.78175 13.1874C8.83644 12.9528 8.80597 12.7064 8.69578 12.4922C8.3189 11.7714 8.12301 10.9697 8.125 10.1563C8.125 8.80946 8.66001 7.51782 9.61235 6.56549C10.5647 5.61315 11.8563 5.07814 13.2031 5.07814C14.5499 5.07814 15.8416 5.61315 16.7939 6.56549C17.7462 7.51782 18.2812 8.80946 18.2812 10.1563C18.2832 10.9697 18.0873 11.7714 17.7105 12.4922C17.5989 12.7069 17.5677 12.9545 17.6224 13.1902C17.6771 13.4259 17.8143 13.6344 18.0091 13.778C19.5101 14.8738 20.588 16.4531 21.0613 18.2502C21.5346 20.0474 21.3746 21.9528 20.608 23.6458C20.5274 23.8249 20.5003 24.0236 20.5303 24.2177C20.5602 24.4118 20.6458 24.5931 20.7766 24.7396C22.4368 26.5943 23.3562 28.9952 23.3594 31.4844C23.3556 31.867 23.3305 32.2491 23.2842 32.629L18.0466 40.4016C16.8614 41.0435 15.5601 41.4426 14.2187 41.5756V33.9371L18.9993 29.1566L17.5632 27.7205L14.2187 31.0649V13.2031H12.1875V21.9233L8.84305 18.5799L7.40695 20.016L12.1875 24.7965V41.5899C9.68346 41.3352 7.36282 40.161 5.67441 38.2944C3.986 36.4278 3.0498 34.0013 3.04687 31.4844ZM14.2187 43.6069C14.8469 43.5575 15.4703 43.4597 16.0834 43.3144L14.2187 46.081V43.6069ZM31.4844 24.0947V40.4818L31.0345 42.0591C28.8092 49.8838 24.2236 56.8312 17.9034 61.9531H5.97086L31.4844 24.0947Z" fill="#F7921E"></path>
    <path d="M52.7424 1.04503C52.1119 1.00745 51.4798 1.00745 50.8493 1.04503C48.6603 1.14835 46.5434 1.85965 44.7361 3.09911C42.9289 4.33857 41.5028 6.05714 40.6179 8.06198C39.7436 9.98381 39.4222 12.1113 39.6899 14.2056C39.9576 16.3 40.8037 18.2782 42.1332 19.9184L51.0016 31.0994C51.0967 31.2191 51.2177 31.3158 51.3554 31.3823C51.493 31.4488 51.644 31.4833 51.7969 31.4833C51.9498 31.4833 52.1007 31.4488 52.2384 31.3823C52.3761 31.3158 52.497 31.2191 52.5921 31.0994L61.4605 19.9184C62.7901 18.2782 63.6362 16.3 63.9039 14.2056C64.1715 12.1113 63.8502 9.98381 62.9759 8.06198C62.0907 6.05692 60.6643 4.33821 58.8567 3.09874C57.049 1.85927 54.9318 1.1481 52.7424 1.04503ZM59.8691 18.657L51.7969 28.8346L43.7247 18.657C42.6289 17.3055 41.9314 15.6754 41.7104 13.9497C41.4894 12.2239 41.7536 10.4707 42.4734 8.88667C43.2109 7.22348 44.3971 5.79855 45.8989 4.77158C47.4007 3.7446 49.1588 3.15616 50.9763 3.07222C51.2474 3.05597 51.5216 3.04683 51.7969 3.04683C52.0721 3.04683 52.3463 3.05597 52.6155 3.07222C54.4333 3.15579 56.1918 3.74406 57.694 4.77106C59.1962 5.79805 60.3827 7.22319 61.1203 8.88667C61.8401 10.4707 62.1043 12.2239 61.8833 13.9497C61.6623 15.6754 60.9648 17.3055 59.8691 18.657Z" fill="#F7921E"></path>
    <path d="M51.7969 5.07812C50.1899 5.07813 48.619 5.55465 47.2829 6.44743C45.9467 7.34022 44.9053 8.60917 44.2904 10.0938C43.6754 11.5785 43.5145 13.2121 43.828 14.7882C44.1415 16.3643 44.9153 17.8121 46.0516 18.9484C47.1879 20.0847 48.6357 20.8585 50.2118 21.172C51.7879 21.4855 53.4215 21.3246 54.9062 20.7096C56.3908 20.0947 57.6598 19.0533 58.5526 17.7171C59.4454 16.381 59.9219 14.8101 59.9219 13.2031C59.9195 11.049 59.0627 8.98376 57.5395 7.46055C56.0162 5.93735 53.951 5.08054 51.7969 5.07812ZM51.7969 19.2969C50.5917 19.2969 49.4135 18.9395 48.4114 18.2699C47.4093 17.6003 46.6282 16.6486 46.167 15.5351C45.7058 14.4216 45.5851 13.1964 45.8202 12.0143C46.0553 10.8322 46.6357 9.74642 47.4879 8.89419C48.3402 8.04197 49.426 7.46159 50.608 7.22646C51.7901 6.99134 53.0154 7.11201 54.1289 7.57323C55.2423 8.03446 56.1941 8.81551 56.8636 9.81762C57.5332 10.8197 57.8906 11.9979 57.8906 13.2031C57.889 14.8188 57.2465 16.3678 56.104 17.5103C54.9616 18.6527 53.4125 19.2953 51.7969 19.2969Z" fill="#F7921E"></path>
  </symbol>
  <symbol fill="none" xmlns="http://www.w3.org/2000/svg" viewBox="0 0 52 47" id="staff">
    <path d="M25.9063 30.751C19.4497 30.751 14.2156 35.985 14.2156 42.4416V45.9997H37.5971V42.4417C37.597 35.9851 32.3629 30.751 25.9063 30.751Z" stroke="#F7921E" stroke-width="2" stroke-miterlimit="10" stroke-linecap="round" stroke-linejoin="round"></path>
    <path d="M28.0463 30.3252C30.8992 29.1435 32.254 25.8728 31.0723 23.02C29.8906 20.1671 26.6199 18.8124 23.767 19.9941C20.9141 21.1758 19.5593 24.4465 20.741 27.2993C21.9227 30.1522 25.1933 31.5069 28.0463 30.3252Z" stroke="#F7921E" stroke-width="2" stroke-miterlimit="10" stroke-linecap="round" stroke-linejoin="round"></path>
    <path d="M37.597 45.9998H50.8126V43.0609C50.8126 37.7269 46.489 33.4033 41.155 33.4033C38.9318 33.4033 36.8854 34.1535 35.2527 35.4172" stroke="#F7921E" stroke-width="2" stroke-miterlimit="10" stroke-linecap="round" stroke-linejoin="round"></path>
    <path d="M44.4206 32.0505C46.2243 30.2467 46.2242 27.3222 44.4205 25.5185C42.6167 23.7148 39.6922 23.7148 37.8885 25.5186C36.0848 27.3224 36.0848 30.2469 37.8886 32.0506C39.6924 33.8543 42.6168 33.8543 44.4206 32.0505Z" stroke="#F7921E" stroke-width="2" stroke-miterlimit="10" stroke-linecap="round" stroke-linejoin="round"></path>
    <path d="M14.2156 45.9998H1V43.0609C1 37.7269 5.32357 33.4033 10.6576 33.4033C12.8808 33.4033 14.9272 34.1535 16.5599 35.4172" stroke="#F7921E" stroke-width="2" stroke-miterlimit="10" stroke-linecap="round" stroke-linejoin="round"></path>
    <path d="M15.1521 29.8489C15.7384 27.3663 14.201 24.8785 11.7184 24.2923C9.23578 23.7061 6.74799 25.2434 6.16177 27.726C5.57554 30.2086 7.11287 32.6964 9.59549 33.2826C12.0781 33.8689 14.5659 32.3315 15.1521 29.8489Z" stroke="#F7921E" stroke-width="2" stroke-miterlimit="10" stroke-linecap="round" stroke-linejoin="round"></path>
    <path d="M23.0471 31.1035L24.3815 34.8172H27.431L28.7725 31.1055M19.2985 43.3234V46M6.0829 43.3234V46M32.514 43.3234V46M45.7297 43.3234V46M25.9063 1L28.2624 5.77391L33.5306 6.53942L29.7185 10.2554L30.6184 15.5024L25.9063 13.0252L21.1941 15.5024L22.0941 10.2554L18.2819 6.53942L23.5502 5.77391L25.9063 1ZM25.9063 46L23.3648 42.9502L24.3814 34.8176H27.4311L28.4477 42.9502L25.9063 46Z" stroke="#F7921E" stroke-width="2" stroke-miterlimit="10" stroke-linecap="round" stroke-linejoin="round"></path>
  </symbol>
  <symbol fill="none" xmlns="http://www.w3.org/2000/svg" viewBox="0 0 39 45" id="shield">
    <path d="M37.2689 12.2494C37.2477 11.7707 37.2338 11.2918 37.2272 10.8128C37.2006 9.01323 35.7849 7.54467 33.988 7.4443C28.4923 7.1373 24.1942 5.30927 20.5638 1.77072C19.9564 1.21384 19.0452 1.21384 18.4377 1.77072C14.8073 5.30927 10.5093 7.1373 5.01358 7.4443C3.21666 7.54467 1.80093 9.01323 1.77421 10.8127C1.76773 11.2918 1.75387 11.7707 1.73263 12.2494C1.53066 22.8545 1.22788 37.3891 18.8674 43.5399C18.9518 43.5693 19.0382 43.5928 19.126 43.6103L19.1268 43.6105C19.3737 43.6598 19.6279 43.6598 19.8747 43.6105C19.9628 43.5929 20.0501 43.5692 20.1349 43.5396C37.7233 37.3887 37.4709 22.9047 37.2689 12.2494Z" stroke="#F7921E" stroke-width="2" stroke-miterlimit="10" stroke-linecap="round" stroke-linejoin="round"></path>
    <path d="M29.3795 22.5002C29.3795 27.9566 24.9563 32.3799 19.4999 32.3799C14.0436 32.3799 9.62036 27.9566 9.62036 22.5002C9.62036 17.0438 14.0436 12.6206 19.4999 12.6206C24.9563 12.6206 29.3795 17.0438 29.3795 22.5002Z" stroke="#F7921E" stroke-width="2" stroke-miterlimit="10" stroke-linecap="round" stroke-linejoin="round"></path>
    <path d="M23.6507 19.9554L17.5173 26.0889" stroke="#F7921E" stroke-width="2" stroke-miterlimit="10" stroke-linecap="round" stroke-linejoin="round"></path>
    <path d="M15.1733 23.745L17.5172 26.0889" stroke="#F7921E" stroke-width="2" stroke-miterlimit="10" stroke-linecap="round" stroke-linejoin="round"></path>
  </symbol>
    <symbol fill="none" xmlns="http://www.w3.org/2000/svg" viewBox="0 0 14 14" id="calendar">
    <path d="M3.5 1V2.5M10.5 1V2.5M1 11.5V4C1 3.60218 1.15804 3.22064 1.43934 2.93934C1.72064 2.65804 2.10218 2.5 2.5 2.5H11.5C11.8978 2.5 12.2794 2.65804 12.5607 2.93934C12.842 3.22064 13 3.60218 13 4V11.5M1 11.5C1 11.8978 1.15804 12.2794 1.43934 12.5607C1.72064 12.842 2.10218 13 2.5 13H11.5C11.8978 13 12.2794 12.842 12.5607 12.5607C12.842 12.2794 13 11.8978 13 11.5M1 11.5V6.5C1 6.10218 1.15804 5.72064 1.43934 5.43934C1.72064 5.15804 2.10218 5 2.5 5H11.5C11.8978 5 12.2794 5.15804 12.5607 5.43934C12.842 5.72064 13 6.10218 13 6.5V11.5M7 7.5H7.00533V7.50533H7V7.5ZM7 9H7.00533V9.00533H7V9ZM7 10.5H7.00533V10.5053H7V10.5ZM5.5 9H5.50533V9.00533H5.5V9ZM5.5 10.5H5.50533V10.5053H5.5V10.5ZM4 9H4.00533V9.00533H4V9ZM4 10.5H4.00533V10.5053H4V10.5ZM8.5 7.5H8.50533V7.50533H8.5V7.5ZM8.5 9H8.50533V9.00533H8.5V9ZM8.5 10.5H8.50533V10.5053H8.5V10.5ZM10 7.5H10.0053V7.50533H10V7.5ZM10 9H10.0053V9.00533H10V9Z" stroke="#484848" stroke-linecap="round" stroke-linejoin="round"></path>
  </symbol>
    <symbol fill="none" xmlns="http://www.w3.org/2000/svg" viewBox="0 0 40 41" id="check-shield">
    <path fill-rule="evenodd" clip-rule="evenodd" d="M19.1525 0.305737C19.3907 0.108144 19.6905 0 20 0C20.3095 0 20.6093 0.108144 20.8475 0.305737C25.8415 4.45988 32.0538 6.87262 38.5425 7.17824C38.8349 7.18723 39.1149 7.29849 39.3337 7.49263C39.5525 7.68677 39.6963 7.9515 39.74 8.24074C39.9125 9.54074 40 10.8657 40 12.2157C40 25.1207 31.85 36.1232 20.415 40.3557C20.1471 40.4545 19.8529 40.4545 19.585 40.3557C8.15 36.1232 0 25.1207 0 12.2132C0 10.8682 0.0875002 9.54074 0.26 8.24074C0.30382 7.95109 0.447974 7.68604 0.667298 7.49185C0.886622 7.29765 1.16718 7.18666 1.46 7.17824C7.94818 6.87137 14.1595 4.45777 19.1525 0.303237V0.305737ZM29.6425 15.1907C29.9349 14.7883 30.0555 14.2861 29.9776 13.7948C29.8998 13.3034 29.63 12.8631 29.2275 12.5707C28.825 12.2783 28.3229 12.1578 27.8316 12.2356C27.3402 12.3134 26.8999 12.5833 26.6075 12.9857L17.9 24.9607L13.2 20.2607C13.027 20.0817 12.82 19.939 12.5912 19.8408C12.3624 19.7427 12.1163 19.6911 11.8674 19.689C11.6184 19.687 11.3715 19.7345 11.1411 19.8289C10.9108 19.9233 10.7015 20.0626 10.5255 20.2388C10.3495 20.4149 10.2104 20.6243 10.1162 20.8548C10.0221 21.0853 9.97476 21.3322 9.97704 21.5811C9.97932 21.8301 10.0312 22.0761 10.1295 22.3048C10.2279 22.5335 10.3708 22.7404 10.55 22.9132L16.8 29.1632C16.9916 29.3549 17.2224 29.5028 17.4766 29.5967C17.7308 29.6906 18.0024 29.7282 18.2725 29.7071C18.5427 29.6859 18.8051 29.6065 19.0416 29.4742C19.2781 29.3419 19.4831 29.1599 19.6425 28.9407L29.6425 15.1907V15.1907Z" fill="#F7921E"></path>
  </symbol>
  <symbol xmlns="http://www.w3.org/2000/svg" viewBox="0 -14 511.99739 511" id="fireworks">
    <path d="m309.492188 187.90625c-1.125 0-2.257813-.191406-3.351563-.578125l-50.140625-17.832031-50.144531 17.832031c-3.105469 1.105469-6.558594.605469-9.226563-1.332031-2.667968-1.941406-4.210937-5.070313-4.121094-8.367188l1.464844-53.199218-32.453125-42.179688c-2.011719-2.609375-2.605469-6.050781-1.585937-9.1875 1.019531-3.136719 3.519531-5.566406 6.683594-6.5l51.046874-15.046875 30.085938-43.902344c1.867188-2.71875 4.953125-4.34375 8.25-4.34375s6.382812 1.625 8.25 4.34375l30.085938 43.902344 51.046874 15.046875c3.164063.933594 5.664063 3.363281 6.683594 6.5 1.019532 3.136719.425782 6.574219-1.585937 9.1875l-32.453125 42.183594 1.464844 53.195312c.089843 3.296875-1.453126 6.429688-4.121094 8.367188-1.730469 1.257812-3.796875 1.910156-5.878906 1.910156zm-123.222657-106.285156 25.722657 33.433594c1.402343 1.820312 2.132812 4.070312 2.070312 6.371093l-1.160156 42.167969 39.746094-14.132812c2.167968-.769532 4.535156-.769532 6.703124 0l39.742188 14.132812-1.15625-42.167969c-.066406-2.300781.667969-4.550781 2.070312-6.371093l25.722657-33.433594-40.460938-11.929688c-2.207031-.648437-4.121093-2.039062-5.421875-3.9375l-23.847656-34.796875-23.847656 34.796875c-1.300782 1.898438-3.214844 3.289063-5.421875 3.9375zm0 0"></path>
    <path d="m401.765625 95.832031c-2.082031 0-4.148437-.652343-5.878906-1.910156-2.667969-1.9375-4.210938-5.066406-4.117188-8.363281l.613281-22.414063-13.671874-17.773437c-2.011719-2.613282-2.601563-6.050782-1.585938-9.1875 1.019531-3.136719 3.519531-5.566406 6.683594-6.5l21.507812-6.339844 12.675782-18.496094c1.867187-2.722656 4.953124-4.347656 8.25-4.347656 3.296874 0 6.382812 1.625 8.25 4.347656l12.675781 18.496094 21.503906 6.339844c3.164063.933594 5.664063 3.363281 6.6875 6.5 1.015625 3.136718.425781 6.574218-1.585937 9.1875l-13.675782 17.773437.617188 22.414063c.09375 3.296875-1.449219 6.425781-4.117188 8.363281-2.667968 1.9375-6.121094 2.433594-9.226562 1.332031l-21.128906-7.511718-21.125 7.511718c-1.09375.386719-2.226563.578125-3.351563.578125zm24.476563-28.703125c1.132812 0 2.265624.191406 3.347656.578125l10.730468 3.8125-.3125-11.382812c-.066406-2.300781.667969-4.550781 2.070313-6.371094l6.941406-9.027344-10.921875-3.21875c-2.203125-.648437-4.121094-2.039062-5.421875-3.9375l-6.4375-9.394531-6.4375 9.394531c-1.300781 1.898438-3.214843 3.285157-5.421875 3.9375l-10.921875 3.21875 6.945313 9.027344c1.398437 1.820313 2.132812 4.070313 2.066406 6.371094l-.3125 11.382812 10.730469-3.8125c1.089843-.386719 2.21875-.578125 3.355469-.578125zm0 0"></path>
    <path d="m110.234375 95.832031c-1.125 0-2.257813-.191406-3.351563-.578125l-21.125-7.511718-21.125 7.511718c-3.109374 1.105469-6.558593.605469-9.230468-1.332031-2.667969-1.9375-4.207032-5.066406-4.117188-8.363281l.617188-22.414063-13.675782-17.773437c-2.011718-2.613282-2.601562-6.050782-1.582031-9.1875 1.019531-3.140625 3.519531-5.570313 6.683594-6.503906l21.503906-6.339844 12.675781-18.496094c1.867188-2.71875 4.953126-4.34375 8.25-4.34375 3.296876 0 6.382813 1.625 8.25 4.34375l12.675782 18.496094 21.503906 6.34375c3.164062.929687 5.664062 3.363281 6.683594 6.5 1.019531 3.136718.425781 6.574218-1.582032 9.1875l-13.675781 17.769531.617188 22.414063c.089843 3.296874-1.449219 6.429687-4.117188 8.367187-1.730469 1.257813-3.792969 1.910156-5.878906 1.910156zm-24.476563-28.703125c1.132813 0 2.269532.191406 3.351563.578125l10.730469 3.8125-.3125-11.382812c-.066406-2.300781.667968-4.550781 2.066406-6.371094l6.945312-9.027344-10.921874-3.21875c-2.207032-.648437-4.121094-2.039062-5.421876-3.9375l-6.4375-9.394531-6.4375 9.394531c-1.300781 1.898438-3.214843 3.285157-5.421874 3.9375l-10.921876 3.21875 6.945313 9.027344c1.402344 1.820313 2.132813 4.070313 2.070313 6.371094l-.3125 11.382812 10.730468-3.8125c1.082032-.386719 2.214844-.578125 3.347656-.578125zm0 0"></path>
    <path d="m256 414.003906c-.648438 0-1.308594-.070312-1.949219-.199218-.640625-.121094-1.269531-.320313-1.871093-.570313-.609376-.25-1.191407-.5625-1.730469-.921875-.550781-.359375-1.058594-.777344-1.519531-1.238281-.460938-.460938-.878907-.96875-1.238282-1.519531-.363281-.539063-.671875-1.121094-.921875-1.730469-.25-.601563-.449219-1.230469-.570312-1.871094-.128907-.640625-.199219-1.300781-.199219-1.949219 0-.648437.070312-1.308594.199219-1.949218.121093-.640626.320312-1.269532.570312-1.878907.25-.601562.558594-1.183593.921875-1.722656.359375-.550781.777344-1.058594 1.238282-1.519531.460937-.460938.96875-.878906 1.519531-1.238282.539062-.363281 1.121093-.671874 1.730469-.921874.601562-.25 1.230468-.441407 1.871093-.570313 1.289063-.257813 2.609375-.257813 3.898438 0 .640625.128906 1.269531.320313 1.871093.570313.609376.25 1.1875.558593 1.726563.921874.550781.359376 1.0625.777344 1.523437 1.238282.460938.460937.878907.96875 1.238282 1.519531.359375.539063.671875 1.121094.921875 1.722656.25.609375.449219 1.238281.566406 1.878907.132813.640624.203125 1.300781.203125 1.949218 0 .648438-.070312 1.3125-.203125 1.949219-.128906.640625-.316406 1.269531-.566406 1.871094-.25.609375-.5625 1.191406-.921875 1.730469-.359375.550781-.777344 1.058593-1.238282 1.519531-.460937.460937-.972656.878906-1.523437 1.238281-.539063.359375-1.117187.671875-1.726563.921875-.601562.25-1.230468.449219-1.871093.570313-.640625.128906-1.300781.199218-1.949219.199218zm0 0"></path>
    <path d="m256 381.003906c-5.523438 0-10-4.476562-10-10v-165.003906c0-5.519531 4.476562-10 10-10s10 4.480469 10 10v165.003906c0 5.519532-4.476562 10-10 10zm0 0"></path>
    <path d="m425.746094 317.28125c-.523438 0-1.042969-.039062-1.566406-.125-3.257813-.515625-6.050782-2.601562-7.46875-5.582031l-17.972657-37.808594-37.804687-17.972656c-2.980469-1.414063-5.070313-4.207031-5.585938-7.464844s.609375-6.5625 3.003906-8.828125l30.402344-28.773438 5.410156-41.511718c.425782-3.269532 2.4375-6.121094 5.375-7.617188 2.941407-1.5 6.425782-1.449218 9.324219.128906l36.761719 20.019532 41.148438-7.679688c3.242187-.609375 6.574218.425782 8.90625 2.757813 2.332031 2.332031 3.363281 5.664062 2.761718 8.90625l-7.683594 41.148437 20.023438 36.761719c1.574219 2.898437 1.625 6.386719.125 9.324219-1.496094 2.9375-4.347656 4.949218-7.617188 5.375l-41.507812 5.410156-28.777344 30.402344c-1.902344 2.015625-4.535156 3.128906-7.257812 3.128906zm-43.050782-73.285156 27.84375 13.234375c2.074219.988281 3.75 2.660156 4.738282 4.738281l13.234375 27.839844 21.1875-22.386719c1.582031-1.671875 3.691406-2.746094 5.972656-3.042969l30.566406-3.984375-14.746093-27.070312c-1.097657-2.019531-1.46875-4.355469-1.046876-6.617188l5.65625-30.304687-30.300781 5.660156c-2.261719.417969-4.597656.050781-6.617187-1.050781l-27.074219-14.742188-3.980469 30.566407c-.296875 2.28125-1.371094 4.390624-3.042968 5.96875zm0 0"></path>
    <path d="m273.648438 483.867188c-.347657 0-.691407-.015626-1.042969-.050782-5.492188-.570312-9.484375-5.484375-8.917969-10.976562 6.554688-63.40625 37.082031-111.574219 61.539062-140.816406 26.410157-31.585938 51.386719-48.371094 52.433594-49.070313 4.597656-3.058594 10.804688-1.816406 13.867188 2.785156 3.058594 4.59375 1.8125 10.804688-2.785156 13.863281-.949219.632813-23.597657 15.859376-48.175782 45.25-22.664062 27.105469-50.953125 71.667969-56.984375 130.046876-.53125 5.140624-4.875 8.96875-9.933593 8.96875zm0 0"></path>
    <path d="m86.253906 317.28125c-2.722656 0-5.355468-1.113281-7.261718-3.125l-28.773438-30.402344-41.511719-5.410156c-3.269531-.425781-6.121093-2.4375-7.617187-5.378906-1.496094-2.9375-1.449219-6.425782.128906-9.320313l20.019531-36.761719-7.679687-41.152343c-.609375-3.242188.425781-6.574219 2.757812-8.90625 2.332032-2.332031 5.664063-3.367188 8.90625-2.757813l41.148438 7.683594 36.761718-20.023438c2.898438-1.578124 6.386719-1.625 9.324219-.128906s4.949219 4.347656 5.375 7.617188l5.410157 41.511718 30.40625 28.773438c2.394531 2.269531 3.515624 5.570312 3 8.828125-.515626 3.257813-2.605469 6.050781-5.582032 7.46875l-37.808594 17.972656-17.96875 37.804688c-1.417968 2.976562-4.210937 5.066406-7.46875 5.582031-.523437.085938-1.046874.125-1.566406.125zm-60.492187-56.886719 30.566406 3.984375c2.28125.296875 4.390625 1.371094 5.96875 3.042969l21.191406 22.386719 13.234375-27.839844c.988282-2.078125 2.660156-3.75 4.738282-4.738281l27.839843-13.234375-22.386719-21.191406c-1.671874-1.578126-2.746093-3.6875-3.042968-5.96875l-3.984375-30.566407-27.070313 14.746094c-2.019531 1.097656-4.359375 1.46875-6.617187 1.046875l-30.304688-5.65625 5.65625 30.300781c.425781 2.261719.054688 4.601563-1.046875 6.617188zm0 0"></path>
    <path d="m238.351562 483.867188c-5.0625 0-9.402343-3.828126-9.933593-8.972657-6.035157-58.378906-34.320313-102.9375-56.984375-130.042969-24.566406-29.375-47.226563-44.617187-48.179688-45.25-4.597656-3.0625-5.84375-9.273437-2.78125-13.867187 3.0625-4.597656 9.269532-5.84375 13.867188-2.78125 1.050781.699219 26.039062 17.503906 52.433594 49.070313 24.457031 29.242187 54.984374 77.410156 61.539062 140.816406.566406 5.492187-3.425781 10.40625-8.921875 10.972656-.347656.039062-.695313.054688-1.039063.054688zm0 0"></path>
    <path d="m334.558594 482.003906c-1.394532 0-2.8125-.292968-4.164063-.910156-5.019531-2.304688-7.222656-8.238281-4.917969-13.261719 15.265626-33.285156 40.710938-53.824219 59.367188-65.195312 19.769531-12.050781 35.832031-16.523438 37.597656-16.996094 5.339844-1.421875 10.816406 1.75 12.238282 7.085937 1.421874 5.335938-1.75 10.816407-7.085938 12.238282-.144531.039062-14.679688 3.984375-32.34375 14.75-16.273438 9.917968-38.4375 27.765625-51.597656 56.457031-1.679688 3.667969-5.304688 5.832031-9.09375 5.832031zm0 0"></path>
    <path d="m186.921875 482.003906c-3.789063 0-7.414063-2.164062-9.097656-5.832031-13.15625-28.691406-35.320313-46.539063-51.597657-56.457031-17.660156-10.765625-32.199218-14.710938-32.34375-14.75-5.335937-1.425782-8.507812-6.902344-7.082031-12.238282 1.421875-5.335937 6.902344-8.507812 12.238281-7.085937 1.769532.472656 17.835938 4.953125 37.597657 16.996094 18.65625 11.371093 44.101562 31.910156 59.367187 65.195312 2.304688 5.023438.101563 10.957031-4.921875 13.261719-1.351562.617188-2.765625.910156-4.160156.910156zm0 0"></path>
    <path d="m465.84375 354.988281c-5.519531 0-10-4.476562-10-10v-8.324219c0-5.523437 4.480469-10 10-10 5.523438 0 10 4.476563 10 10v8.324219c0 5.523438-4.476562 10-10 10zm0 0"></path>
    <path d="m465.84375 400.140625c-5.519531 0-10-4.480469-10-10v-8.328125c0-5.519531 4.480469-10 10-10 5.523438 0 10 4.480469 10 10v8.328125c0 5.519531-4.476562 10-10 10zm0 0"></path>
    <path d="m492.582031 373.402344h-8.324219c-5.519531 0-10-4.480469-10-10 0-5.523438 4.480469-10 10-10h8.324219c5.523438 0 10 4.476562 10 10 0 5.519531-4.476562 10-10 10zm0 0"></path>
    <path d="m447.433594 373.402344h-8.324219c-5.523437 0-10-4.480469-10-10 0-5.523438 4.476563-10 10-10h8.324219c5.523437 0 10 4.476562 10 10 0 5.519531-4.476563 10-10 10zm0 0"></path>
    <path d="m46.152344 354.988281c-5.523438 0-10-4.476562-10-10v-8.324219c0-5.523437 4.476562-10 10-10 5.523437 0 10 4.476563 10 10v8.324219c0 5.523438-4.476563 10-10 10zm0 0"></path>
    <path d="m46.152344 400.140625c-5.523438 0-10-4.480469-10-10v-8.328125c0-5.519531 4.476562-10 10-10 5.523437 0 10 4.480469 10 10v8.328125c0 5.519531-4.476563 10-10 10zm0 0"></path>
    <path d="m72.890625 373.402344h-8.324219c-5.523437 0-10-4.480469-10-10 0-5.523438 4.476563-10 10-10h8.324219c5.523437 0 10 4.476562 10 10 0 5.519531-4.476563 10-10 10zm0 0"></path>
    <path d="m27.742188 373.402344h-8.328126c-5.519531 0-10-4.480469-10-10 0-5.523438 4.480469-10 10-10h8.328126c5.523437 0 10 4.476562 10 10 0 5.519531-4.476563 10-10 10zm0 0"></path>
  </symbol>
</svg>