<svg width="52" height="83" viewBox="0 0 52 83" fill="none" xmlns="http://www.w3.org/2000/svg">
<path d="M28.277 32.3311C26.4746 30.5868 25.5152 31.0114 24.1229 30.0721C20.6894 27.7556 18.2847 28.1874 14.0081 31.6491C10.4795 34.5055 4.95765 37.4019 3.62692 38.0475C1.74653 38.9598 2.76752 43.0558 5.99978 43.7191C12.9493 45.1453 17.1029 36.9186 20.9875 40.4984C24.2981 43.5489 26.699 46.0121 24.4199 48.7112C20.8036 52.9939 19.8654 52.9001 16.5492 51.1678C11.6799 48.6242 12.8056 45.1693 7.48859 44.0543C4.1005 43.3437 1.0569 46.2087 2.27312 47.9967C3.13396 49.2621 4.86796 50.7644 6.51677 55.1653C9.80236 63.9351 17.8728 62.0848 17.9437 70.7709" stroke="white" stroke-width="3" stroke-miterlimit="22.926" stroke-linecap="round" stroke-linejoin="round"/>
<path d="M39.8101 70.8849H48.7107V80.7966H16.4964V70.8849H25.3961" stroke="white" stroke-width="3" stroke-miterlimit="22.926" stroke-linecap="round" stroke-linejoin="round"/>
<path d="M47.2556 70.7709C47.2983 65.9061 50.0468 61.0414 50.0468 56.1767V44.2297L48.9547 25.598C48.8208 23.3127 48.1207 21.2238 45.7668 21.2238C43.4128 21.2238 41.185 23.1258 41.5162 25.392" stroke="white" stroke-width="3" stroke-miterlimit="22.926" stroke-linecap="round" stroke-linejoin="round"/>
<path d="M24.1038 30.0087L18.0164 9.75425C15.9509 2.8818 24.5657 -1.41982 26.6487 5.554L33.1161 27.2067C33.8864 30.0024 36.3802 30.6517 36.8073 35.1353" stroke="white" stroke-width="3" stroke-miterlimit="22.926" stroke-linecap="round" stroke-linejoin="round"/>
<path d="M32.2714 24.3766L31.0822 15.4779C30.1681 8.63686 38.6411 3.87863 39.6858 11.6957L43.4821 40.1014" stroke="white" stroke-width="3" stroke-miterlimit="22.926" stroke-linecap="round" stroke-linejoin="round"/>
<path d="M32.6024 70.8849H32.604" stroke="white" stroke-width="3" stroke-miterlimit="2.613" stroke-linecap="round" stroke-linejoin="round"/>
</svg>
