<svg width="27" height="25" viewBox="0 0 27 25" fill="none" xmlns="http://www.w3.org/2000/svg">
<path d="M5.58983 24.3652H2.42578C1.55208 24.3652 0.791016 23.657 0.791016 22.7832V16.4551C0.791016 15.5813 1.55208 14.8731 2.42578 14.8731H5.58983C6.46353 14.8731 7.17186 15.5813 7.17186 16.4551V22.7832C7.17186 23.657 6.46353 24.3652 5.58983 24.3652Z" stroke="#484848" stroke-miterlimit="10" stroke-linecap="round" stroke-linejoin="round"/>
<path d="M0.791016 18.0371H2.42578" stroke="#484848" stroke-miterlimit="10" stroke-linecap="round" stroke-linejoin="round"/>
<path d="M5.58984 18.0371H7.17187" stroke="#484848" stroke-miterlimit="10" stroke-linecap="round" stroke-linejoin="round"/>
<path d="M0.791016 21.2012H2.42578" stroke="#484848" stroke-miterlimit="10" stroke-linecap="round" stroke-linejoin="round"/>
<path d="M5.58984 21.2012H7.17187" stroke="#484848" stroke-miterlimit="10" stroke-linecap="round" stroke-linejoin="round"/>
<path d="M24.6269 24.3652H21.4102C20.5365 24.3652 19.8281 23.657 19.8281 22.7832V16.4551C19.8281 15.5813 20.5365 14.8731 21.4102 14.8731H24.6269C25.5006 14.8731 26.209 15.5813 26.209 16.4551V22.7832C26.209 23.657 25.5006 24.3652 24.6269 24.3652Z" stroke="#484848" stroke-miterlimit="10" stroke-linecap="round" stroke-linejoin="round"/>
<path d="M19.8281 18.0371H21.4102" stroke="#484848" stroke-miterlimit="10" stroke-linecap="round" stroke-linejoin="round"/>
<path d="M24.627 18.0371H26.209" stroke="#484848" stroke-miterlimit="10" stroke-linecap="round" stroke-linejoin="round"/>
<path d="M19.8281 21.2012H21.4102" stroke="#484848" stroke-miterlimit="10" stroke-linecap="round" stroke-linejoin="round"/>
<path d="M24.627 21.2012H26.209" stroke="#484848" stroke-miterlimit="10" stroke-linecap="round" stroke-linejoin="round"/>
<path d="M16.664 19.6191H10.3359V16.4551H16.664V19.6191Z" stroke="#484848" stroke-miterlimit="10" stroke-linecap="round" stroke-linejoin="round"/>
<path d="M7.17188 19.6191L10.3359 18.0371" stroke="#484848" stroke-miterlimit="10" stroke-linecap="round" stroke-linejoin="round"/>
<path d="M16.6641 18.0371L19.8281 19.6191" stroke="#484848" stroke-miterlimit="10" stroke-linecap="round" stroke-linejoin="round"/>
<path d="M10.3359 16.4551C10.3359 13.8339 8.21104 11.709 5.58983 11.709C3.84238 11.709 2.42578 10.2924 2.42578 8.54495H8.75389V5.38089H18.246V8.54495H24.5742C24.5742 10.2924 23.1576 11.709 21.4101 11.709C18.7889 11.709 16.664 13.8339 16.664 16.4551" stroke="#484848" stroke-miterlimit="10" stroke-linecap="round" stroke-linejoin="round"/>
<path d="M5.58983 3.79883H0.791016V0.634775H5.58983V3.79883ZM26.2089 3.79883H21.4101V0.634775H26.2089V3.79883Z" stroke="#484848" stroke-miterlimit="10" stroke-linecap="round" stroke-linejoin="round"/>
<path d="M5.58984 2.21681H7.17187C8.04557 2.21681 8.7539 2.92513 8.7539 3.79883V5.38086" stroke="#484848" stroke-miterlimit="10" stroke-linecap="round" stroke-linejoin="round"/>
<path d="M21.4101 2.21681H19.8281C18.9544 2.21681 18.2461 2.92513 18.2461 3.79883V5.38086" stroke="#484848" stroke-miterlimit="10" stroke-linecap="round" stroke-linejoin="round"/>
<path d="M11.918 13.291V11.709" stroke="#484848" stroke-miterlimit="10" stroke-linecap="round" stroke-linejoin="round"/>
<path d="M15.082 11.709V13.291" stroke="#484848" stroke-miterlimit="10" stroke-linecap="round" stroke-linejoin="round"/>
<path d="M15.082 5.38087V6.9629C15.082 7.83665 14.3737 8.54492 13.5 8.54492C12.6263 8.54492 11.918 7.83665 11.918 6.9629V5.38087" stroke="#484848" stroke-miterlimit="10" stroke-linecap="round" stroke-linejoin="round"/>
</svg>
