<svg width="27" height="27" viewBox="0 0 27 27" fill="none" xmlns="http://www.w3.org/2000/svg">
<g clip-path="url(#clip0_2_8417)">
<path d="M22.9654 23.6072L17.5823 20.9024L22.9652 18.1975C23.0944 18.1326 23.2095 18.0429 23.3041 17.9335C23.3986 17.8241 23.4706 17.6972 23.5161 17.5599C23.5616 17.4227 23.5796 17.2778 23.569 17.1336C23.5585 16.9894 23.5197 16.8487 23.4548 16.7195L22.7977 15.4117C22.7328 15.2825 22.643 15.1673 22.5336 15.0728C22.4242 14.9782 22.2972 14.9062 22.16 14.8607C22.0227 14.8153 21.8778 14.7973 21.7336 14.8078C21.5894 14.8183 21.4486 14.8572 21.3194 14.9221L20.1184 15.5249C21.2365 14.0861 22.0928 12.4618 22.6481 10.7263C22.6706 10.6558 22.6714 10.5801 22.6503 10.5092C22.6292 10.4382 22.5873 10.3752 22.5299 10.3284C22.4726 10.2815 22.4025 10.253 22.3287 10.2465C22.255 10.2401 22.181 10.2559 22.1164 10.292L19.2115 11.9162C19.5313 11.087 19.6584 10.1959 19.5832 9.31031C19.508 8.42473 19.2324 7.56783 18.7774 6.80437L18.3977 6.17325C18.3621 6.11385 18.3104 6.06569 18.2487 6.03425C18.1869 6.00282 18.1176 5.98938 18.0486 5.99547C17.9796 6.00157 17.9137 6.02695 17.8584 6.06872C17.8031 6.11048 17.7607 6.16695 17.736 6.23168L17.4764 6.913C17.2404 7.53522 16.8783 8.10191 16.4129 8.57745C15.9474 9.053 15.3885 9.42711 14.7715 9.67629C13.5829 7.73996 12.9448 5.51614 12.926 3.24417L12.9007 0.365715C12.9 0.287603 12.8745 0.211726 12.828 0.149003C12.7814 0.0862787 12.7162 0.0399413 12.6416 0.0166576C12.567 -0.00662616 12.487 -0.00565584 12.413 0.0194289C12.3391 0.0445137 12.2749 0.0924196 12.2299 0.156254L10.2193 3.00391C8.58274 5.31847 7.76894 8.11464 7.90781 10.9459L4.93697 8.52182C4.88085 8.47607 4.81252 8.44782 4.74047 8.44061C4.66842 8.43339 4.59584 8.44753 4.53177 8.48125C4.46769 8.51498 4.41495 8.5668 4.3801 8.63027C4.34526 8.69375 4.32985 8.76607 4.3358 8.83823C4.53219 11.234 5.38058 13.5303 6.789 15.4783L5.68032 14.9212C5.55112 14.8563 5.41041 14.8175 5.2662 14.807C5.122 14.7964 4.97714 14.8144 4.83989 14.8599C4.70263 14.9054 4.57568 14.9774 4.46628 15.0719C4.35688 15.1665 4.26717 15.2816 4.20228 15.4108L3.54499 16.7186C3.41435 16.9796 3.39253 17.2818 3.4843 17.5589C3.57608 17.8359 3.77396 18.0653 4.03458 18.1967L9.41792 20.9024L4.03458 23.6072C3.77372 23.7384 3.57562 23.9677 3.48385 24.2449C3.39207 24.5221 3.41415 24.8244 3.54521 25.0853L4.20228 26.3931C4.26686 26.5225 4.35647 26.6379 4.46592 26.7324C4.57538 26.827 4.7025 26.8989 4.83994 26.944C4.95193 26.9812 5.06915 27.0002 5.18714 27.0004C5.3585 27.0003 5.52744 26.9599 5.68032 26.8825L13.5 22.9535L21.3194 26.8825C21.4724 26.9599 21.6414 27.0003 21.8128 27.0004C21.9308 27.0002 22.048 26.9812 22.16 26.944C22.2975 26.8989 22.4246 26.827 22.534 26.7324C22.6435 26.6379 22.7331 26.5225 22.7977 26.3931L23.4548 25.0853C23.5858 24.8244 23.6079 24.5221 23.5161 24.2449C23.4243 23.9677 23.2262 23.7384 22.9654 23.6072ZM5.34893 26.2229C5.26297 26.2661 5.16337 26.2734 5.07203 26.2431C4.9807 26.2129 4.9051 26.1476 4.86188 26.0617L4.20481 24.7539C4.1616 24.6679 4.15431 24.5683 4.18453 24.477C4.21475 24.3857 4.28001 24.3101 4.36596 24.2668L10.2399 21.3154L12.6773 22.5403L5.34893 26.2229ZM15.2929 17.9507L13.5 18.8512L11.707 17.9507C11.6977 17.8476 11.6931 17.7425 11.6931 17.6343C11.6931 16.4223 12.9425 14.8835 13.4993 14.2578C14.0562 14.8835 15.3054 16.4223 15.3054 17.6343C15.306 17.7427 15.3016 17.8478 15.2929 17.9507ZM21.6519 15.5819C21.6944 15.5605 21.7408 15.5477 21.7883 15.5443C21.8358 15.5408 21.8835 15.5467 21.9287 15.5617C21.9739 15.5767 22.0157 15.6005 22.0518 15.6316C22.0878 15.6628 22.1173 15.7007 22.1387 15.7433L22.7958 17.0511C22.839 17.1371 22.8462 17.2367 22.816 17.328C22.7857 17.4194 22.7204 17.4949 22.6344 17.5381L16.76 20.4892L14.3226 19.2642L21.6519 15.5819ZM7.90128 15.7148C6.46379 13.9841 5.52265 11.896 5.17807 9.6727L8.11453 12.0673C8.17152 12.1137 8.24109 12.1421 8.31432 12.1488C8.38755 12.1555 8.46111 12.1402 8.52557 12.1048C8.59002 12.0694 8.64244 12.0155 8.67609 11.9501C8.70974 11.8848 8.72309 11.8108 8.71444 11.7378C8.36513 8.80298 9.11615 5.84288 10.8223 3.42958L12.1723 1.51743L12.1875 3.25092C12.2088 5.76317 12.9449 8.21745 14.3096 10.3268C14.3542 10.3957 14.4205 10.4477 14.498 10.4748C14.5755 10.5018 14.6598 10.5023 14.7375 10.4762C15.5129 10.2156 16.2212 9.78738 16.8121 9.22185C17.403 8.65632 17.8619 7.96745 18.1562 7.20431C18.6439 8.03121 18.8892 8.97863 18.8641 9.93832C18.839 10.898 18.5444 11.8313 18.014 12.6315C17.9679 12.7005 17.9463 12.7829 17.9528 12.8656C17.9592 12.9483 17.9934 13.0265 18.0497 13.0874C18.106 13.1483 18.1812 13.1885 18.2631 13.2015C18.345 13.2144 18.4289 13.1994 18.5013 13.1589L21.6211 11.4159C20.8849 13.2815 19.7784 14.9787 18.3684 16.405L16.8942 17.1456L16.0422 17.5738C15.9968 15.7304 13.8544 13.5466 13.7622 13.4535C13.6915 13.3861 13.5976 13.3485 13.5 13.3485C13.4023 13.3485 13.3084 13.3861 13.2378 13.4535C13.1456 13.5466 11.0031 15.7304 10.9578 17.5738L8.36112 16.2689L7.90128 15.7148ZM22.7952 24.7547L22.1381 26.0625C22.1167 26.1051 22.0871 26.143 22.0511 26.1741C22.0151 26.2053 21.9732 26.229 21.928 26.244C21.8828 26.2589 21.8351 26.2648 21.7876 26.2614C21.7401 26.2579 21.6938 26.2451 21.6512 26.2237L4.36639 17.5379C4.28056 17.4946 4.21541 17.419 4.1852 17.3277C4.155 17.2364 4.1622 17.1369 4.20523 17.0509L4.86251 15.7431C4.95342 15.6521 5.03126 15.4623 5.34935 15.5819L22.6336 24.2668C22.7195 24.3101 22.7848 24.3857 22.815 24.477C22.8452 24.5683 22.8379 24.6679 22.7947 24.7539L22.7952 24.7547Z" fill="#484848"/>
</g>
<defs>
<clipPath id="clip0_2_8417">
<rect width="27" height="27" fill="white"/>
</clipPath>
</defs>
</svg>
