<svg width="27" height="27" viewBox="0 0 27 27" fill="none" xmlns="http://www.w3.org/2000/svg">
<g clip-path="url(#clip0_2_8406)">
<path d="M8.34995 7.18274C8.34995 6.62099 7.99564 6.18079 7.54328 6.18079C7.09113 6.18079 6.73682 6.62079 6.73682 7.18274C6.73682 7.74448 7.09113 8.18448 7.54328 8.18448C7.99564 8.18448 8.34995 7.74448 8.34995 7.18274Z" fill="#484848"/>
<path d="M15.0194 7.18274C15.0194 6.62099 14.6651 6.18079 14.213 6.18079C13.7606 6.18079 13.4063 6.62079 13.4063 7.18274C13.4063 7.74448 13.7606 8.18448 14.213 8.18448C14.6651 8.18448 15.0194 7.74448 15.0194 7.18274Z" fill="#484848"/>
<path d="M10.8781 10.2424C11.0977 10.2424 11.2755 10.0646 11.2755 9.84499V8.95407C11.7396 8.821 12.099 8.46957 12.099 8.09178C12.099 7.95335 12.0457 7.61861 11.5519 7.50182C11.39 7.4635 11.1886 7.44702 10.8781 7.44702C10.5679 7.44702 10.3664 7.4635 10.2043 7.50182C9.71055 7.61861 9.6572 7.95335 9.6572 8.09178C9.6572 8.46957 10.0167 8.821 10.4808 8.95407V9.84499C10.4808 10.0646 10.6587 10.2424 10.8781 10.2424Z" fill="#484848"/>
<path d="M20.0613 11.0343C20.5513 12.1757 21.1613 13.596 21.042 15.1828C20.9483 16.428 20.5975 17.7239 20.0541 18.8318C19.9575 19.0289 20.0388 19.2668 20.236 19.3634C20.2922 19.391 20.3519 19.4042 20.4107 19.4042C20.5575 19.4042 20.6986 19.3224 20.7678 19.1817C21.3545 17.9851 21.7333 16.5862 21.8345 15.2423C21.9686 13.4613 21.316 11.9417 20.7915 10.7206C20.4916 10.022 20.2325 9.41868 20.2096 8.96693C20.1853 8.48614 20.5967 7.9965 21.0902 7.91904C21.3766 7.87393 22.3589 7.90586 22.9732 10.2052C23.0299 10.4171 23.2476 10.543 23.4598 10.4865C23.6717 10.4299 23.7978 10.212 23.7412 9.99999C23.462 8.95601 23.0618 8.1788 22.5511 7.68998C22.0854 7.244 21.5222 7.04666 20.9666 7.1338C20.0664 7.27531 19.3706 8.11556 19.4159 9.0071C19.446 9.60139 19.7311 10.2655 20.0613 11.0343Z" fill="#484848"/>
<path d="M24.2131 14.4915C24.2133 13.4293 24.1581 12.4614 24.0489 11.6143C24.0211 11.3966 23.8215 11.2431 23.6042 11.2709C23.3865 11.299 23.2328 11.4982 23.2606 11.7157C23.3654 12.5294 23.4184 13.4631 23.4182 14.4912C23.4178 16.4601 22.9959 18.229 22.1643 19.749C21.4996 20.9644 20.5707 22.0281 19.4038 22.9106C18.8931 23.2968 18.38 23.6145 17.8984 23.8738C18.0813 23.4676 18.1715 23.0012 18.1715 22.469C18.1715 22.416 18.1703 22.36 18.1682 22.3025C18.8033 21.8658 19.377 21.3098 19.8757 20.6457C20.0075 20.4702 19.9721 20.2212 19.7966 20.0893C19.6211 19.9575 19.3721 19.9929 19.2402 20.1684C18.8915 20.6327 18.5034 21.0369 18.0817 21.3766C17.7041 18.5852 16.2418 13.5159 15.8141 12.0665C16.511 11.8049 17.1799 11.2306 17.5984 10.4019L18.1643 10.7094C18.3549 10.8126 18.6 10.7401 18.7032 10.5498C18.808 10.357 18.7366 10.1157 18.5438 10.0109L17.8844 9.65266C17.9629 9.36386 18.0131 9.05384 18.0298 8.72404L18.6834 8.6124C18.8999 8.57552 19.0453 8.37035 19.0085 8.15385C18.9714 7.93756 18.7662 7.79234 18.5497 7.829L17.9734 7.92726C17.6802 6.28302 16.4247 4.21546 16.1085 3.71346C16.1188 3.4467 16.1332 2.81244 16.0745 2.15409C15.9575 0.841496 15.6086 0.142972 15.0079 0.0187579C14.4181 -0.102984 13.8249 0.368535 13.1941 1.46112C12.9288 1.92049 12.7168 2.38521 12.598 2.66207H9.15828C9.03942 2.38521 8.82745 1.92049 8.56213 1.46112C7.93138 0.368535 7.33812 -0.10319 6.74836 0.0187579C6.14768 0.142972 5.79873 0.841496 5.68172 2.15409C5.62301 2.81224 5.63743 3.4467 5.64794 3.71346C5.33153 4.21546 4.07621 6.28302 3.78287 7.92726L3.2065 7.829C2.99021 7.79213 2.78484 7.93756 2.74796 8.15385C2.71109 8.37035 2.85652 8.57552 3.07281 8.6124L3.72643 8.72404C3.74312 9.05384 3.79359 9.36386 3.87186 9.65266L3.21248 10.0109C3.01967 10.1157 2.94839 10.357 3.05304 10.5498C3.15645 10.7401 3.40137 10.8128 3.59192 10.7094L4.15778 10.4019C4.57657 11.2308 5.24543 11.8051 5.94251 12.0665C5.82921 12.4513 5.64135 13.0973 5.42135 13.8836C5.36223 14.0949 5.48562 14.3143 5.69697 14.3734C5.90832 14.4327 6.1277 14.3091 6.18682 14.0978C6.5436 12.8219 6.8153 11.9188 6.81798 11.9097C6.88514 11.6873 6.74012 11.4485 6.51208 11.4048C5.56472 11.2238 4.57533 10.2123 4.51724 8.63011C4.49335 7.97752 4.80316 6.98381 5.41331 5.75671C5.88833 4.80172 6.3788 4.04552 6.38375 4.0381C6.4301 3.96683 6.45234 3.88278 6.4474 3.79791C6.44699 3.79029 6.40311 3.01473 6.47336 2.22474C6.57306 1.10702 6.8219 0.815129 6.90944 0.797207C6.99637 0.778668 7.33853 0.933575 7.86999 1.85189C8.2482 2.50531 8.52011 3.19703 8.52279 3.20404C8.58211 3.35647 8.72919 3.45679 8.89296 3.45679H12.8635C13.0272 3.45679 13.1741 3.35647 13.2337 3.20404C13.2363 3.19703 13.5049 2.51231 13.8823 1.85869C14.4161 0.934605 14.7599 0.77908 14.847 0.797207C14.9341 0.815129 15.1821 1.10558 15.2823 2.21733C15.3533 3.00752 15.3094 3.79029 15.3088 3.79812C15.3041 3.88278 15.3263 3.96704 15.3727 4.0381C15.3776 4.04552 15.8681 4.80172 16.3431 5.75691C16.9533 6.98381 17.2631 7.97752 17.239 8.63011C17.1811 10.2123 16.1915 11.2238 15.2441 11.4048C15.0161 11.4485 14.8713 11.6875 14.9382 11.9099C14.9628 11.9909 17.3768 20.0331 17.3768 22.469C17.3768 23.2839 17.1234 23.8631 16.5796 24.292C16.1171 24.6566 15.4324 24.9197 14.4985 25.0908C14.7189 24.2207 14.9144 23.0146 15.0798 21.5064C15.3599 18.9518 15.4594 16.3641 15.4604 16.3384C15.4687 16.119 15.2977 15.9344 15.0783 15.9262C14.8606 15.9169 14.6746 16.0889 14.6661 16.3083C14.6653 16.3322 14.573 18.7279 14.3168 21.1679C14.167 22.5921 13.9919 23.7507 13.7962 24.6111C13.5132 25.8547 13.2633 26.1377 13.1918 26.1958C13.0839 26.1159 12.5633 25.5364 12.2628 21.7171C12.0898 19.5179 12.0795 17.3558 12.0795 17.3342C12.0786 17.1152 11.9009 16.9382 11.6821 16.9382C11.6817 16.9382 11.6811 16.9382 11.6805 16.9382C11.4611 16.9391 11.2839 17.1177 11.2847 17.337C11.2847 17.3605 11.2957 19.6965 11.4887 22.0022C11.6028 23.3677 11.7579 24.4599 11.9497 25.2486C11.9559 25.2742 11.9625 25.2999 11.9689 25.3261C11.6279 25.3366 11.2674 25.342 10.8781 25.342C10.4888 25.342 10.1285 25.3366 9.78738 25.3261C9.79397 25.2999 9.80036 25.274 9.80654 25.2486C9.99832 24.4599 10.1536 23.3677 10.2678 22.0022C10.4606 19.6965 10.4715 17.3605 10.4717 17.337C10.4725 17.1177 10.2952 16.9391 10.0758 16.9382C10.0752 16.9382 10.0747 16.9382 10.0741 16.9382C9.85536 16.9382 9.67759 17.1152 9.67676 17.3342C9.67676 17.3558 9.66667 19.514 9.49384 21.7132C9.19329 25.5362 8.67234 26.1159 8.5644 26.1958C8.51475 26.1554 8.37941 26.0067 8.20679 25.5049C8.19999 25.4701 8.18887 25.4367 8.17363 25.4056C8.10647 25.198 8.03437 24.938 7.96001 24.6111C7.76432 23.7507 7.58922 22.5921 7.43947 21.1679C7.18321 18.7279 7.09092 16.3322 7.0901 16.3083C7.08165 16.0889 6.89708 15.9167 6.67791 15.9262C6.45852 15.9344 6.28755 16.119 6.29579 16.3384C6.29682 16.3641 6.39652 18.9518 6.67647 21.5064C6.84188 23.0148 7.03757 24.2207 7.25799 25.0908C6.32586 24.9201 5.64217 24.6581 5.17992 24.2947C4.63383 23.8654 4.37943 23.2853 4.37943 22.469C4.37943 21.3947 4.86022 19.0274 5.76948 15.6232C5.82612 15.411 5.70026 15.1933 5.48809 15.1366C5.27633 15.0802 5.05839 15.2058 5.00153 15.418C4.06138 18.9376 3.58471 21.31 3.58471 22.469C3.58471 23.5339 3.94582 24.3355 4.68863 24.9195C5.32185 25.4171 6.24923 25.7517 7.51815 25.9393C7.74331 26.5239 8.06424 27 8.55966 27C9.02603 27 9.32863 26.5981 9.53421 26.1126C9.95053 26.1286 10.3928 26.1367 10.8781 26.1367C11.3634 26.1367 11.8057 26.1286 12.222 26.1126C12.4276 26.5981 12.7302 27 13.1966 27C13.6922 27 14.0129 26.5239 14.2383 25.9393C14.7009 25.8707 15.1177 25.7824 15.4918 25.674C15.6668 25.6376 24.211 23.6905 24.2131 14.4915Z" fill="#484848"/>
</g>
<defs>
<clipPath id="clip0_2_8406">
<rect width="27" height="27" fill="white"/>
</clipPath>
</defs>
</svg>
