<svg width="17" height="27" viewBox="0 0 17 27" fill="none" xmlns="http://www.w3.org/2000/svg">
<path d="M8.50002 21.1992C3.72694 21.1992 0.287348 16.6115 1.61578 12.0171C1.61578 12.0171 3.08838 6.55862 3.47671 5.12636L5.44892 6.70416C8.49248 4.9402 7.91103 0.791076 7.91103 0.791076C7.91103 0.791076 11.1561 4.1571 11.5819 6.70416L13.5541 5.12636C13.5051 5.16538 15.3902 12.0379 15.3902 12.0379C16.7024 16.6276 13.2641 21.1992 8.50002 21.1992Z" stroke="#484848" stroke-miterlimit="10" stroke-linecap="round" stroke-linejoin="round"/>
<path d="M12.5146 14.0119C12.5146 16.2339 10.7172 18.0352 8.50001 18.0352C6.2828 18.0352 4.48535 16.2339 4.48535 14.0119C4.48535 11.7898 6.2828 9.98855 8.50001 9.98855C10.7172 9.98855 12.5146 11.7898 12.5146 14.0119Z" stroke="#484848" stroke-miterlimit="10" stroke-linecap="round" stroke-linejoin="round"/>
<path d="M8.5 18.0352V26.209" stroke="#484848" stroke-miterlimit="10" stroke-linecap="round" stroke-linejoin="round"/>
<path d="M3.64697 26.209H13.3529" stroke="#484848" stroke-miterlimit="10" stroke-linecap="round" stroke-linejoin="round"/>
</svg>
