<svg width="17" height="29" viewBox="0 0 17 29" fill="none" xmlns="http://www.w3.org/2000/svg">
<path d="M13.4293 21.8198C14.2495 21.6103 15.0506 21.3324 15.8244 20.989C16.0679 20.8809 16.1535 20.5786 16.0025 20.359L11.1533 13.3118" stroke="#484848" stroke-miterlimit="10" stroke-linecap="round" stroke-linejoin="round"/>
<path d="M5.84661 13.3114L0.997436 20.3587C0.846405 20.5782 0.932045 20.8805 1.17557 20.9887C1.66268 21.205 2.50353 21.5493 3.54882 21.8599" stroke="#484848" stroke-miterlimit="10" stroke-linecap="round" stroke-linejoin="round"/>
<path d="M7.59039 7.41672L1.48229 10.205C1.13577 10.3734 0.986215 10.787 1.14479 11.1381C1.30267 11.4873 1.70867 11.6489 2.06331 11.5035L6.27092 9.81201L5.84673 13.3118M11.1514 13.3118L10.7272 9.81201C12.1333 10.3669 13.5367 10.9285 14.9347 11.5035C15.2893 11.6489 15.6953 11.4873 15.8531 11.1381C16.0118 10.787 15.8622 10.3734 15.5157 10.205C14.694 9.79825 13.8629 9.41366 13.023 9.04599" stroke="#484848" stroke-miterlimit="10" stroke-linecap="round" stroke-linejoin="round"/>
<path d="M11.3665 8.29932L9.46655 7.44307" stroke="#484848" stroke-miterlimit="10" stroke-linecap="round" stroke-linejoin="round"/>
<path d="M8.49905 7.50415C7.51002 7.50415 6.70825 6.70238 6.70825 5.71335V4.16929H10.2899V5.71335C10.2899 6.70238 9.48814 7.50415 8.49905 7.50415Z" stroke="#484848" stroke-miterlimit="10" stroke-linecap="round" stroke-linejoin="round"/>
<path d="M9.40387 1.38271H7.59424C7.49377 1.38271 7.39645 1.41777 7.31907 1.48185C7.24168 1.54593 7.18909 1.635 7.17036 1.73371L6.70825 4.16919H10.2899L9.82774 1.73371C9.80903 1.635 9.75644 1.54592 9.67905 1.48184C9.60167 1.41776 9.50434 1.3827 9.40387 1.38271Z" stroke="#484848" stroke-miterlimit="10" stroke-linecap="round" stroke-linejoin="round"/>
<path d="M6.76001 23.7111L7.01867 27.6172H8.49913V23.827" stroke="#484848" stroke-miterlimit="10" stroke-linecap="round" stroke-linejoin="round"/>
<path d="M10.2381 23.7111L9.97948 27.6172H8.49902V23.827" stroke="#484848" stroke-miterlimit="10" stroke-linecap="round" stroke-linejoin="round"/>
<path d="M4.20411 23.1123C3.98677 23.0405 3.77151 22.9626 3.55859 22.8786C3.32862 22.7876 3.22631 22.5186 3.3351 22.2966L5.83439 17.1947" stroke="#484848" stroke-miterlimit="10" stroke-linecap="round" stroke-linejoin="round"/>
<path d="M11.1638 17.1947L13.6624 22.2951C13.7719 22.5187 13.6666 22.787 13.4352 22.8787C12.7961 23.1319 12.1269 23.3345 11.4538 23.4942C9.67858 23.9152 7.72631 23.9323 5.91626 23.5719" stroke="#484848" stroke-miterlimit="10" stroke-linecap="round" stroke-linejoin="round"/>
</svg>
