<svg width="27" height="27" viewBox="0 0 27 27" fill="none" xmlns="http://www.w3.org/2000/svg">
<path d="M14.5546 17.8149C13.4182 15.0757 9.78196 12.6037 7.54102 12.6037V12.551C10.0438 11.7564 12.8612 12.376 14.6263 13.3549" stroke="#484848" stroke-miterlimit="10" stroke-linecap="round" stroke-linejoin="round"/>
<path d="M18.2194 3.876C19.1676 7.41468 19.2919 9.30425 21.9901 12.3398H14.4487C17.152 9.29502 17.2565 7.46989 18.2194 3.876Z" stroke="#484848" stroke-miterlimit="10" stroke-linecap="round" stroke-linejoin="round"/>
<path d="M18.2195 4.03418V0.791025" stroke="#484848" stroke-miterlimit="10" stroke-linecap="round" stroke-linejoin="round"/>
<path d="M14.4488 12.34C15.1318 15.4833 14.5387 18.6242 13.7267 21.7646C13.5735 22.357 13.5859 22.9023 13.7659 23.4871L14.6026 26.2065" stroke="#484848" stroke-miterlimit="10" stroke-linecap="round" stroke-linejoin="round"/>
<path d="M21.9906 12.34C21.3076 15.4833 21.9007 18.6242 22.7127 21.7646C22.8659 22.357 22.8535 22.9023 22.6736 23.4871L21.8369 26.2065H14.6025" stroke="#484848" stroke-miterlimit="10" stroke-linecap="round" stroke-linejoin="round"/>
<path d="M21.9158 13.6706C24.3404 13.8324 26.2089 15.5138 26.2089 17.5341C26.2089 19.2333 24.8761 20.7345 22.9214 21.2368" stroke="#484848" stroke-miterlimit="10" stroke-linecap="round" stroke-linejoin="round"/>
<path d="M17.6655 3.90234H18.7734" stroke="#484848" stroke-miterlimit="10" stroke-linecap="round" stroke-linejoin="round"/>
<path d="M9.75578 23.6219C9.76923 24.5302 9.09012 25.3278 8.19748 25.4924C8.09307 25.903 7.71924 26.209 7.27732 26.209H4.27147C3.82967 26.209 3.45589 25.9031 3.35142 25.4926C2.46802 25.3312 1.79302 24.5531 1.79297 23.625L1.55566 21.1992L0.791016 19.8281H10.7578L9.99314 21.1977L9.75578 23.6219Z" stroke="#484848" stroke-miterlimit="10" stroke-linecap="round" stroke-linejoin="round"/>
</svg>
