<svg width="29" height="26" viewBox="0 0 29 26" fill="none" xmlns="http://www.w3.org/2000/svg">
<path d="M1 25.2562H28" stroke="#484848" stroke-miterlimit="10" stroke-linecap="round" stroke-linejoin="round"/>
<path d="M11.696 12.9916H26.2859V10.0584H3.26279V12.9916H6.86899" stroke="#484848" stroke-miterlimit="10" stroke-linecap="round" stroke-linejoin="round"/>
<path d="M14.7462 1.00027C14.7462 1.00027 11.4951 7.96638 3.26279 10.0587H14.7462M14.7462 1.00027V10.0587M14.7462 1.00027C14.7462 1.00027 18.0536 7.96638 26.2859 10.0587H14.7462" stroke="#484848" stroke-miterlimit="10" stroke-linecap="round" stroke-linejoin="round"/>
<path d="M6.86912 12.992H4.36053L2.71408 25.2562H8.93747C8.93747 25.2562 14.7463 20.4697 14.7463 12.992H11.6961" stroke="#484848" stroke-miterlimit="10" stroke-linecap="round" stroke-linejoin="round"/>
<path d="M24.6396 12.992L26.286 25.2562H20.6115C20.6115 25.2562 14.7463 20.4697 14.7463 12.992H24.6396Z" stroke="#484848" stroke-miterlimit="10" stroke-linecap="round" stroke-linejoin="round"/>
<path d="M14.7463 12.9919C14.7463 20.4695 8.9375 25.2562 8.9375 25.2562H2.71439C10.529 21.744 14.7463 12.9919 14.7463 12.9919ZM14.7463 12.9919C14.7463 20.4695 20.6115 25.2562 20.6115 25.2562H26.2858C18.4712 21.744 14.7463 12.9919 14.7463 12.9919Z" stroke="#484848" stroke-miterlimit="10" stroke-linecap="round" stroke-linejoin="round"/>
<path d="M20.6112 25.2568H8.93756C8.93756 25.2568 14.7465 20.47 14.7465 12.9924C14.7465 20.47 20.6112 25.2568 20.6112 25.2568Z" stroke="#484848" stroke-miterlimit="10" stroke-linecap="round" stroke-linejoin="round"/>
</svg>
