<?xml version="1.0" standalone="no"?>
<!DOCTYPE svg PUBLIC "-//W3C//DTD SVG 20010904//EN"
 "http://www.w3.org/TR/2001/REC-SVG-20010904/DTD/svg10.dtd">
<svg version="1.0" xmlns="http://www.w3.org/2000/svg"
 width="260.000000pt" height="260.000000pt" viewBox="0 0 260.000000 260.000000"
 preserveAspectRatio="xMidYMid meet">
<metadata>
Created by potrace 1.14, written by Peter Selinger 2001-2017
</metadata>
<g transform="translate(0.000000,260.000000) scale(0.100000,-0.100000)"
fill="#000000" stroke="none">
<path d="M1169 2596 c-2 -2 -24 -6 -49 -10 -402 -52 -766 -305 -959 -667 -110
-206 -154 -382 -155 -614 0 -195 28 -338 99 -512 39 -93 44 -139 18 -160 -17
-14 -17 -14 2 -10 18 3 20 -1 18 -48 -4 -152 79 -309 207 -390 55 -35 57 -32
10 18 -60 62 -102 140 -105 195 -1 25 -7 48 -13 50 -14 4 -16 51 -2 72 8 13
11 12 25 -5 25 -33 36 -55 31 -63 -8 -13 19 -117 37 -143 11 -16 17 -18 17 -8
0 8 -4 19 -10 25 -5 5 -12 34 -15 64 l-6 55 68 -66 c85 -84 103 -99 189 -157
114 -78 306 -164 419 -187 202 -41 410 -43 579 -5 248 55 452 166 626 340 133
132 189 207 256 340 97 193 138 366 138 585 0 233 -41 406 -148 613 -183 352
-550 615 -946 678 -41 6 -326 15 -331 10z"/>
</g>
</svg>
