<svg width="29" height="26" viewBox="0 0 29 26" fill="none" xmlns="http://www.w3.org/2000/svg">
<path d="M9.45852 14.3879V18.5892L7.77802 20.2697V25.3112H5.25727L4.41702 18.5892L6.09752 16.9087L5.17504 13.2188C4.73212 11.4472 5.57914 9.60561 7.21248 8.78895C7.58705 8.60168 7.92897 8.35523 8.22509 8.0591L10.1021 6.18205C10.4725 5.81169 10.9204 5.52813 11.4136 5.35181C11.9068 5.17549 12.433 5.11081 12.9542 5.16242C13.4754 5.21403 13.9787 5.38065 14.4277 5.65028C14.8768 5.9199 15.2604 6.2858 15.5509 6.7216L17.211 9.21176C17.411 9.51165 17.6819 9.75754 17.9996 9.92761C18.3174 10.0977 18.6723 10.1867 19.0327 10.1867C20.2418 10.1867 21.222 9.20649 21.222 7.99738V3.46468C21.222 2.53654 21.9744 1.78418 22.9025 1.78418H28C28 3.6404 26.4392 5.14518 24.583 5.14518V10.475C24.583 11.9819 24.2862 13.4741 23.7095 14.8663C23.1328 16.2586 22.2876 17.5236 21.222 18.5892L20.3818 25.3112H17.861V14.3879" stroke="#484848" stroke-miterlimit="10" stroke-linecap="round" stroke-linejoin="round"/>
<path d="M17.861 16.9087C15.709 17.9847 13.2177 18.1618 10.9351 17.4009L9.4585 16.9087" stroke="#484848" stroke-miterlimit="10" stroke-linecap="round" stroke-linejoin="round"/>
<path d="M19.5415 1.00005L21.558 2.45642" stroke="#484848" stroke-miterlimit="10" stroke-linecap="round" stroke-linejoin="round"/>
<path d="M1 16.9087V11.0269C1 9.63477 2.18458 8.5062 3.57676 8.5062C4.57425 8.5062 5.43646 9.08558 5.8451 9.92622" stroke="#484848" stroke-miterlimit="10" stroke-linecap="round" stroke-linejoin="round"/>
</svg>
