<svg width="27" height="27" viewBox="0 0 27 27" fill="none" xmlns="http://www.w3.org/2000/svg">
<path d="M23.8166 12.0498H3.12769C3.12769 6.79995 7.38355 2.54409 12.6334 2.54409H14.3109C19.5607 2.54409 23.8166 6.79995 23.8166 12.0498Z" stroke="#484848" stroke-miterlimit="10" stroke-linecap="round" stroke-linejoin="round"/>
<path d="M13.4722 2.54419V0.791357" stroke="#484848" stroke-miterlimit="10" stroke-linecap="round" stroke-linejoin="round"/>
<path d="M1.31787 12.0498H25.6265" stroke="#484848" stroke-miterlimit="10" stroke-linecap="round" stroke-linejoin="round"/>
<path d="M4.26904 9.13428H6.09338" stroke="#484848" stroke-miterlimit="10" stroke-linecap="round" stroke-linejoin="round"/>
<path d="M9.18188 25.3433H14.9575C16.0304 25.3433 17.0924 25.1283 18.0808 24.711L26.2089 21.2799C26.1871 19.7235 24.704 18.6051 23.2016 19.012L17.1819 20.6422H13.4884" stroke="#484848" stroke-miterlimit="10" stroke-linecap="round" stroke-linejoin="round"/>
<path d="M11.489 25.3428H6.09323L6.08447 22.4729V18.41C6.08447 16.825 7.36934 15.5401 8.95432 15.5401C9.96935 15.5401 10.8606 16.0675 11.3708 16.8628H15.3082C16.3519 16.8628 17.1979 17.7088 17.1979 18.7525C17.1979 19.7961 16.3519 20.6422 15.3082 20.6422H11.8242L10.9823 21.4841" stroke="#484848" stroke-miterlimit="10" stroke-linecap="round" stroke-linejoin="round"/>
<path d="M3.98397 26.2095H0.791016V15.7109H3.98397C5.14892 15.7109 6.09334 16.6553 6.09334 17.8203V24.1001C6.09334 25.2651 5.14892 26.2095 3.98397 26.2095Z" stroke="#484848" stroke-miterlimit="10" stroke-linecap="round" stroke-linejoin="round"/>
</svg>
