<svg width="29" height="22" viewBox="0 0 29 22" fill="none" xmlns="http://www.w3.org/2000/svg">
<path d="M26 18H28V13.415C28 12.4055 27.3379 11.5156 26.3711 11.2256L22.2857 10H4V18H6.43263" stroke="#484848" stroke-miterlimit="10" stroke-linecap="round" stroke-linejoin="round"/>
<path d="M20 18L13 18" stroke="#484848" stroke-miterlimit="10" stroke-linecap="round" stroke-linejoin="round"/>
<path d="M18.9132 4H4V10H23L21.1663 5.36755C20.8431 4.5509 19.9355 4 18.9132 4Z" stroke="#484848" stroke-miterlimit="10" stroke-linecap="round" stroke-linejoin="round"/>
<path d="M1.96774 16H4V9H1.96774C1.43326 9 1 9.52232 1 10.1667V14.8333C1 15.4777 1.43326 16 1.96774 16Z" stroke="#484848" stroke-miterlimit="10" stroke-linecap="round" stroke-linejoin="round"/>
<path d="M17 18V4" stroke="#484848" stroke-miterlimit="10" stroke-linecap="round" stroke-linejoin="round"/>
<path d="M9 10V4" stroke="#484848" stroke-miterlimit="10" stroke-linecap="round" stroke-linejoin="round"/>
<path d="M17 4V1H8V4" stroke="#484848" stroke-miterlimit="10" stroke-linecap="round" stroke-linejoin="round"/>
<path d="M6 1H18" stroke="#484848" stroke-miterlimit="10" stroke-linecap="round" stroke-linejoin="round"/>
<path d="M13 18C13 19.6569 11.6569 21 10 21C8.34313 21 7 19.6569 7 18C7 16.3431 8.34313 15 10 15C11.6569 15 13 16.3431 13 18Z" stroke="#484848" stroke-miterlimit="10" stroke-linecap="round" stroke-linejoin="round"/>
<path d="M26 18C26 19.6569 24.6569 21 23 21C21.3431 21 20 19.6569 20 18C20 16.3431 21.3431 15 23 15C24.6569 15 26 16.3431 26 18Z" stroke="#484848" stroke-miterlimit="10" stroke-linecap="round" stroke-linejoin="round"/>
</svg>
