<svg width="27" height="25" viewBox="0 0 27 25" fill="none" xmlns="http://www.w3.org/2000/svg">
<path d="M3.16406 13.5547H23.8359C25.0009 13.5547 25.9453 12.6103 25.9453 11.4453C25.9453 10.2804 25.0009 9.33594 23.8359 9.33594H3.16406C1.99911 9.33594 1.05469 10.2804 1.05469 11.4453C1.05469 12.6103 1.99911 13.5547 3.16406 13.5547ZM3.16406 13.5547V15.6641C3.16406 18.4194 4.92497 20.7634 7.38281 21.6321V21.9922C7.38281 23.1571 8.32723 24.1016 9.49219 24.1016H17.5078C18.6728 24.1016 19.6172 23.1571 19.6172 21.9922V21.6321C21.4153 20.9966 22.8404 19.5715 23.4759 17.7734M13.8451 9.33594L22.3659 1.55894M22.3659 1.55894C23.2263 0.773563 24.5605 0.834471 25.3459 1.69488C26.1313 2.55535 26.0703 3.88953 25.2099 4.6749L20.1031 9.33594M22.3659 1.55894L14.5759 8.66901M7.38281 5.11719H5.27344C2.95318 5.11719 1.05469 3.2187 1.05469 0.898438H3.16406C5.48432 0.898438 7.38281 2.79682 7.38281 5.11719ZM7.38281 5.11719H9.49219C11.8124 5.11719 13.7109 3.2187 13.7109 0.898438H11.6016C9.2813 0.898438 7.38281 2.79682 7.38281 5.11719Z" stroke="#484848" stroke-miterlimit="10" stroke-linecap="round" stroke-linejoin="round"/>
</svg>
