<svg width="27" height="27" viewBox="0 0 27 27" fill="none" xmlns="http://www.w3.org/2000/svg">
<g clip-path="url(#clip0_2_8412)">
<path d="M26.1562 24.0469H26.0483L22.3417 11.6915C22.3182 11.6134 22.2726 11.5438 22.2105 11.4911L13.773 4.31921C13.698 4.25561 13.6032 4.22018 13.5049 4.21902C13.4067 4.21787 13.3111 4.25107 13.2346 4.31288L4.37527 11.4848C4.3057 11.5407 4.25587 11.6174 4.23309 11.7037L0.941625 24.0469H0.84375C0.731862 24.0469 0.624556 24.0914 0.545439 24.1705C0.466322 24.2496 0.421875 24.3569 0.421875 24.4688V26.1563C0.421875 26.2682 0.466322 26.3755 0.545439 26.4546C0.624556 26.5337 0.731862 26.5782 0.84375 26.5782H26.1562C26.2681 26.5782 26.3754 26.5337 26.4546 26.4546C26.5337 26.3755 26.5781 26.2682 26.5781 26.1563V24.4688C26.5781 24.3569 26.5337 24.2496 26.4546 24.1705C26.3754 24.0914 26.2681 24.0469 26.1562 24.0469ZM23.9941 24.0469L23.0559 17.0092L25.1653 24.0469H23.9941ZM13.4932 5.18912L21.5409 12.029L23.1432 24.0469H18.0849L20.1791 20.9061C20.2332 20.8249 20.2576 20.7275 20.2479 20.6304C20.2383 20.5334 20.1954 20.4426 20.1264 20.3737L13.8004 14.0485C13.7487 14.0024 13.6869 13.9692 13.62 13.9514C13.5531 13.9337 13.4829 13.9319 13.4152 13.9463C13.3475 13.9607 13.2841 13.9908 13.2301 14.0342C13.1762 14.0776 13.1332 14.1331 13.1047 14.1961L9.41077 24.0469H3.84117L5.04309 12.0294L13.4932 5.18912ZM16.6881 24.0469H10.3119L13.5 15.5453L16.6881 24.0469ZM14.5787 16.0195L19.2852 20.7255L17.4028 23.5495L14.5787 16.0195ZM3.70027 16.975L2.99531 24.0469H1.81406L3.70027 16.975ZM25.7344 25.7344H1.26562V24.8907H25.7344V25.7344Z" fill="#484848"/>
<path d="M11.3906 11.3906H12.2344V12.2344C12.2344 12.3463 12.2788 12.4536 12.3579 12.5327C12.4371 12.6118 12.5444 12.6562 12.6562 12.6562H14.3438C14.4556 12.6562 14.5629 12.6118 14.6421 12.5327C14.7212 12.4536 14.7656 12.3463 14.7656 12.2344V11.3906H15.6094C15.7213 11.3906 15.8286 11.3462 15.9077 11.2671C15.9868 11.1879 16.0312 11.0806 16.0312 10.9688V9.28125C16.0312 9.16936 15.9868 9.06206 15.9077 8.98294C15.8286 8.90382 15.7213 8.85938 15.6094 8.85938H14.7656V8.01562C14.7656 7.90374 14.7212 7.79643 14.6421 7.71731C14.5629 7.6382 14.4556 7.59375 14.3438 7.59375H12.6562C12.5444 7.59375 12.4371 7.6382 12.3579 7.71731C12.2788 7.79643 12.2344 7.90374 12.2344 8.01562V8.85938H11.3906C11.2787 8.85938 11.1714 8.90382 11.0923 8.98294C11.0132 9.06206 10.9688 9.16936 10.9688 9.28125V10.9688C10.9688 11.0806 11.0132 11.1879 11.0923 11.2671C11.1714 11.3462 11.2787 11.3906 11.3906 11.3906ZM11.8125 9.70312H12.6562C12.7681 9.70312 12.8754 9.65868 12.9546 9.57956C13.0337 9.50044 13.0781 9.39314 13.0781 9.28125V8.4375H13.9219V9.28125C13.9219 9.39314 13.9663 9.50044 14.0454 9.57956C14.1246 9.65868 14.2319 9.70312 14.3438 9.70312H15.1875V10.5469H14.3438C14.2319 10.5469 14.1246 10.5913 14.0454 10.6704C13.9663 10.7496 13.9219 10.8569 13.9219 10.9688V11.8125H13.0781V10.9688C13.0781 10.8569 13.0337 10.7496 12.9546 10.6704C12.8754 10.5913 12.7681 10.5469 12.6562 10.5469H11.8125V9.70312Z" fill="#484848"/>
<path d="M20.6719 5.48432H23.2031C23.5053 5.48445 23.7976 5.37643 24.0271 5.17981C24.2566 4.98318 24.4081 4.71093 24.4544 4.41228C24.5006 4.11363 24.4384 3.8083 24.2791 3.5515C24.1198 3.29469 23.8738 3.10337 23.5857 3.01213C23.5033 2.63637 23.2949 2.30007 22.9951 2.05896C22.6953 1.81785 22.3222 1.6864 21.9375 1.6864C21.5528 1.6864 21.1796 1.81785 20.8798 2.05896C20.5801 2.30007 20.3717 2.63637 20.2892 3.01213C20.0011 3.10337 19.7552 3.29469 19.5959 3.5515C19.4365 3.8083 19.3744 4.11363 19.4206 4.41228C19.4668 4.71093 19.6184 4.98318 19.8479 5.17981C20.0774 5.37643 20.3696 5.48445 20.6719 5.48432ZM20.6719 3.79682C20.7837 3.79682 20.891 3.75237 20.9702 3.67326C21.0493 3.59414 21.0937 3.48683 21.0937 3.37495C21.0937 3.15117 21.1826 2.93656 21.3409 2.77832C21.4991 2.62009 21.7137 2.5312 21.9375 2.5312C22.1613 2.5312 22.3759 2.62009 22.5341 2.77832C22.6923 2.93656 22.7812 3.15117 22.7812 3.37495C22.7812 3.48683 22.8257 3.59414 22.9048 3.67326C22.9839 3.75237 23.0912 3.79682 23.2031 3.79682C23.315 3.79682 23.4223 3.84127 23.5014 3.92038C23.5805 3.9995 23.625 4.10681 23.625 4.21869C23.625 4.33058 23.5805 4.43789 23.5014 4.51701C23.4223 4.59612 23.315 4.64057 23.2031 4.64057H20.6719C20.56 4.64057 20.4527 4.59612 20.3735 4.51701C20.2944 4.43789 20.25 4.33058 20.25 4.21869C20.25 4.10681 20.2944 3.9995 20.3735 3.92038C20.4527 3.84127 20.56 3.79682 20.6719 3.79682Z" fill="#484848"/>
<path d="M3.79685 4.21869H6.3281C6.63031 4.21882 6.92258 4.1108 7.15208 3.91418C7.38157 3.71756 7.53313 3.44531 7.57936 3.14666C7.62558 2.84801 7.56342 2.54267 7.4041 2.28587C7.24479 2.02907 6.99885 1.83775 6.71074 1.74651C6.62827 1.37075 6.41988 1.03445 6.12011 0.793335C5.82034 0.552224 5.44718 0.420776 5.06248 0.420776C4.67777 0.420776 4.30462 0.552224 4.00485 0.793335C3.70507 1.03445 3.49669 1.37075 3.41421 1.74651C3.12611 1.83775 2.88016 2.02907 2.72085 2.28587C2.56154 2.54267 2.49937 2.84801 2.5456 3.14666C2.59182 3.44531 2.74338 3.71756 2.97288 3.91418C3.20237 4.1108 3.49465 4.21882 3.79685 4.21869ZM3.79685 2.53119C3.90874 2.53119 4.01605 2.48675 4.09516 2.40763C4.17428 2.32851 4.21873 2.22121 4.21873 2.10932C4.21873 1.88554 4.30762 1.67093 4.46586 1.5127C4.62409 1.35446 4.8387 1.26557 5.06248 1.26557C5.28625 1.26557 5.50086 1.35446 5.6591 1.5127C5.81733 1.67093 5.90623 1.88554 5.90623 2.10932C5.90623 2.22121 5.95067 2.32851 6.02979 2.40763C6.10891 2.48675 6.21621 2.53119 6.3281 2.53119C6.43999 2.53119 6.5473 2.57564 6.62641 2.65476C6.70553 2.73388 6.74998 2.84118 6.74998 2.95307C6.74998 3.06496 6.70553 3.17226 6.62641 3.25138C6.5473 3.3305 6.43999 3.37494 6.3281 3.37494H3.79685C3.68496 3.37494 3.57766 3.3305 3.49854 3.25138C3.41942 3.17226 3.37498 3.06496 3.37498 2.95307C3.37498 2.84118 3.41942 2.73388 3.49854 2.65476C3.57766 2.57564 3.68496 2.53119 3.79685 2.53119Z" fill="#484848"/>
</g>
<defs>
<clipPath id="clip0_2_8412">
<rect width="27" height="27" fill="white"/>
</clipPath>
</defs>
</svg>
