<svg width="85" height="85" viewBox="0 0 85 85" fill="none" xmlns="http://www.w3.org/2000/svg">
<path d="M42.5 85C65.9721 85 85 65.9721 85 42.5C85 19.0279 65.9721 0 42.5 0C19.0279 0 0 19.0279 0 42.5C0 65.9721 19.0279 85 42.5 85Z" fill="#34E0A1"/>
<path d="M68.7502 34.209L73.8787 28.6293H62.5058C56.8122 24.7401 49.9362 22.4751 42.4999 22.4751C35.073 22.4751 28.2161 24.745 22.532 28.6293H11.1306L16.2591 34.209C13.1156 37.0771 11.1449 41.2084 11.1449 45.7956C11.1449 54.4523 18.1634 61.4707 26.8201 61.4707C30.9324 61.4707 34.679 59.8847 37.476 57.2919L42.5 62.7623L47.524 57.2967C50.321 59.8895 54.0628 61.4707 58.1751 61.4707C66.8318 61.4707 73.8597 54.4523 73.8597 45.7956C73.8644 41.2037 71.8938 37.0724 68.7502 34.209ZM26.8248 56.4039C20.9649 56.4039 16.2164 51.6555 16.2164 45.7956C16.2164 39.9358 20.965 35.1872 26.8248 35.1872C32.6845 35.1872 37.4331 39.9358 37.4331 45.7956C37.4331 51.6555 32.6845 56.4039 26.8248 56.4039ZM42.5046 45.4869C42.5046 38.5064 37.4284 32.5137 30.7281 29.9542C34.3513 28.4393 38.3259 27.5988 42.4999 27.5988C46.6739 27.5988 50.6531 28.4393 54.2764 29.9542C47.581 32.5185 42.5046 38.5065 42.5046 45.4869ZM58.1799 56.4039C52.32 56.4039 47.5714 51.6555 47.5714 45.7956C47.5714 39.9358 52.32 35.1872 58.1799 35.1872C64.0397 35.1872 68.7882 39.9358 68.7882 45.7956C68.7882 51.6555 64.0396 56.4039 58.1799 56.4039ZM58.1799 40.2301C55.1075 40.2301 52.6192 42.7184 52.6192 45.7908C52.6192 48.8631 55.1075 51.3514 58.1799 51.3514C61.2522 51.3514 63.7405 48.8631 63.7405 45.7908C63.7403 42.7232 61.2522 40.2301 58.1799 40.2301ZM32.3854 45.7956C32.3854 48.8679 29.897 51.3562 26.8248 51.3562C23.7525 51.3562 21.2642 48.8679 21.2642 45.7956C21.2642 42.7232 23.7525 40.2349 26.8248 40.2349C29.897 40.2301 32.3854 42.7232 32.3854 45.7956Z" fill="black"/>
</svg>
